G04*
G04 #@! TF.GenerationSoftware,Altium Limited,Altium Designer,25.2.1 (25)*
G04*
G04 Layer_Color=8421504*
%FSLAX44Y44*%
%MOMM*%
G71*
G04*
G04 #@! TF.SameCoordinates,87619A9C-F5BC-4542-8D18-A5A081A772CD*
G04*
G04*
G04 #@! TF.FilePolarity,Positive*
G04*
G01*
G75*
%ADD17R,1.2000X0.8000*%
%ADD18C,0.8000*%
%ADD19R,0.9000X1.0000*%
%ADD20R,1.1900X0.7500*%
%ADD21R,0.7500X1.1900*%
G04:AMPARAMS|DCode=22|XSize=0.95mm|YSize=0.95mm|CornerRadius=0mm|HoleSize=0mm|Usage=FLASHONLY|Rotation=180.000|XOffset=0mm|YOffset=0mm|HoleType=Round|Shape=RoundedRectangle|*
%AMROUNDEDRECTD22*
21,1,0.9500,0.9500,0,0,180.0*
21,1,0.9500,0.9500,0,0,180.0*
1,1,0.0000,-0.4750,0.4750*
1,1,0.0000,0.4750,0.4750*
1,1,0.0000,0.4750,-0.4750*
1,1,0.0000,-0.4750,-0.4750*
%
%ADD22ROUNDEDRECTD22*%
G04:AMPARAMS|DCode=23|XSize=0.95mm|YSize=0.95mm|CornerRadius=0mm|HoleSize=0mm|Usage=FLASHONLY|Rotation=90.000|XOffset=0mm|YOffset=0mm|HoleType=Round|Shape=RoundedRectangle|*
%AMROUNDEDRECTD23*
21,1,0.9500,0.9500,0,0,90.0*
21,1,0.9500,0.9500,0,0,90.0*
1,1,0.0000,0.4750,0.4750*
1,1,0.0000,0.4750,-0.4750*
1,1,0.0000,-0.4750,-0.4750*
1,1,0.0000,-0.4750,0.4750*
%
%ADD23ROUNDEDRECTD23*%
%ADD24R,1.0000X0.9000*%
%ADD25R,1.2000X0.6000*%
%ADD26R,0.3000X0.8500*%
%ADD27R,1.6000X0.6000*%
%ADD28R,0.9000X1.5000*%
%ADD29R,1.9000X1.2000*%
%ADD30R,2.4000X3.3000*%
%ADD31R,2.4000X1.0000*%
%ADD32R,0.4000X0.9500*%
%ADD33R,0.6000X1.2500*%
%ADD34R,0.6000X1.2000*%
%ADD35R,0.9800X3.7000*%
%ADD36R,1.6000X3.2000*%
%ADD37R,0.8000X1.4000*%
D17*
X655358Y92560D02*
D03*
Y103560D02*
D03*
Y114560D02*
D03*
Y125560D02*
D03*
Y136560D02*
D03*
Y147560D02*
D03*
Y158560D02*
D03*
Y188560D02*
D03*
Y199560D02*
D03*
Y210560D02*
D03*
Y221560D02*
D03*
Y232560D02*
D03*
X530608D02*
D03*
Y221560D02*
D03*
Y210560D02*
D03*
Y199560D02*
D03*
Y188560D02*
D03*
X530608Y158560D02*
D03*
X530608Y147560D02*
D03*
Y136560D02*
D03*
Y114560D02*
D03*
Y103560D02*
D03*
Y92560D02*
D03*
X530608Y125560D02*
D03*
D18*
X504570Y469658D02*
D03*
Y457658D02*
D03*
Y445658D02*
D03*
Y433658D02*
D03*
X390569Y469658D02*
D03*
Y457658D02*
D03*
Y445658D02*
D03*
Y433658D02*
D03*
Y392408D02*
D03*
Y367008D02*
D03*
Y341608D02*
D03*
Y316208D02*
D03*
Y290808D02*
D03*
Y265408D02*
D03*
X504570D02*
D03*
Y341608D02*
D03*
Y367008D02*
D03*
Y392408D02*
D03*
X405569Y461908D02*
D03*
X417569D02*
D03*
X429569D02*
D03*
X441569D02*
D03*
X453569D02*
D03*
X465569D02*
D03*
X477569D02*
D03*
X489569D02*
D03*
Y272908D02*
D03*
X477569D02*
D03*
X465569D02*
D03*
X453569D02*
D03*
X441569D02*
D03*
X429569D02*
D03*
X417569D02*
D03*
X405569D02*
D03*
X454570Y439408D02*
D03*
X447569Y367408D02*
D03*
Y349408D02*
D03*
Y331408D02*
D03*
X440570Y439408D02*
D03*
X432169Y421408D02*
D03*
Y331408D02*
D03*
Y349408D02*
D03*
Y367408D02*
D03*
Y385408D02*
D03*
X462969Y421408D02*
D03*
Y331408D02*
D03*
Y349408D02*
D03*
Y367408D02*
D03*
Y385408D02*
D03*
X504570Y316208D02*
D03*
Y290808D02*
D03*
D19*
X552239Y409838D02*
D03*
X535239D02*
D03*
X535309Y424627D02*
D03*
X552309D02*
D03*
X226862Y150733D02*
D03*
X209862D02*
D03*
X219136Y296046D02*
D03*
X236137D02*
D03*
X219137Y328531D02*
D03*
X236136D02*
D03*
X219948Y363220D02*
D03*
X236949D02*
D03*
X686546Y161318D02*
D03*
X669546D02*
D03*
D20*
X519040Y265451D02*
D03*
Y277451D02*
D03*
Y289451D02*
D03*
Y301451D02*
D03*
Y313451D02*
D03*
Y325451D02*
D03*
Y337451D02*
D03*
Y349451D02*
D03*
Y361451D02*
D03*
Y373451D02*
D03*
Y385451D02*
D03*
Y397451D02*
D03*
Y409451D02*
D03*
Y421451D02*
D03*
Y433451D02*
D03*
Y445451D02*
D03*
Y457451D02*
D03*
Y469451D02*
D03*
X375920Y469211D02*
D03*
Y457211D02*
D03*
Y445211D02*
D03*
Y433211D02*
D03*
Y421211D02*
D03*
Y409211D02*
D03*
Y397211D02*
D03*
Y385211D02*
D03*
Y373211D02*
D03*
Y361211D02*
D03*
Y349211D02*
D03*
Y337211D02*
D03*
Y325211D02*
D03*
Y313211D02*
D03*
Y301211D02*
D03*
Y289211D02*
D03*
Y277211D02*
D03*
Y265211D02*
D03*
D21*
X489569Y475909D02*
D03*
X477569D02*
D03*
X465569D02*
D03*
X453569D02*
D03*
X441569D02*
D03*
X429569D02*
D03*
X417569D02*
D03*
X405569D02*
D03*
X405590Y258221D02*
D03*
X417590D02*
D03*
X429590D02*
D03*
X441590D02*
D03*
X453590D02*
D03*
X465590D02*
D03*
X477590D02*
D03*
X489590D02*
D03*
D22*
X306644Y108097D02*
D03*
X291643D02*
D03*
X183878Y180340D02*
D03*
X168878D02*
D03*
X299443Y317344D02*
D03*
X284442D02*
D03*
X712819Y124005D02*
D03*
X697819D02*
D03*
X291763Y123337D02*
D03*
X306763D02*
D03*
X194909Y116876D02*
D03*
X179909D02*
D03*
X168878Y166370D02*
D03*
X183878D02*
D03*
D23*
X206758Y42130D02*
D03*
Y57131D02*
D03*
X225579Y133448D02*
D03*
Y118449D02*
D03*
X534518Y316110D02*
D03*
Y301110D02*
D03*
X100000Y247500D02*
D03*
X499162Y103728D02*
D03*
Y88728D02*
D03*
X514060Y88603D02*
D03*
Y103603D02*
D03*
X387198Y194190D02*
D03*
Y179190D02*
D03*
X436728Y194190D02*
D03*
Y179190D02*
D03*
X191518Y42130D02*
D03*
Y57131D02*
D03*
X549758Y316110D02*
D03*
Y301110D02*
D03*
X100000Y232500D02*
D03*
X549501Y277222D02*
D03*
Y262222D02*
D03*
X534646Y262263D02*
D03*
Y277263D02*
D03*
D24*
X210269Y135536D02*
D03*
Y118536D02*
D03*
X689924Y199322D02*
D03*
X674487Y182384D02*
D03*
Y199384D02*
D03*
X689000Y237728D02*
D03*
X353284Y178837D02*
D03*
Y161837D02*
D03*
X689000Y221728D02*
D03*
X689924Y182322D02*
D03*
X705800Y204877D02*
D03*
Y221877D02*
D03*
D25*
X193559Y150506D02*
D03*
Y131506D02*
D03*
Y141006D02*
D03*
X168559Y150506D02*
D03*
Y141006D02*
D03*
Y131506D02*
D03*
D26*
X266509Y348490D02*
D03*
X256509Y316990D02*
D03*
X266509D02*
D03*
X271508Y348490D02*
D03*
X261508D02*
D03*
X256509D02*
D03*
X261508Y316990D02*
D03*
X271508D02*
D03*
D27*
X651358Y199560D02*
D03*
Y188560D02*
D03*
Y210560D02*
D03*
Y221560D02*
D03*
Y232560D02*
D03*
X534518D02*
D03*
Y221560D02*
D03*
Y210560D02*
D03*
Y199560D02*
D03*
Y188560D02*
D03*
Y158560D02*
D03*
Y147560D02*
D03*
Y136560D02*
D03*
Y125560D02*
D03*
Y114560D02*
D03*
Y103560D02*
D03*
Y92560D02*
D03*
X651358Y136560D02*
D03*
Y125560D02*
D03*
Y114560D02*
D03*
Y103560D02*
D03*
Y92560D02*
D03*
Y147560D02*
D03*
Y158560D02*
D03*
D28*
X118000Y341500D02*
D03*
X132000D02*
D03*
X118000Y310500D02*
D03*
X132000D02*
D03*
D29*
X270358Y155700D02*
D03*
Y123700D02*
D03*
D30*
X291528Y80150D02*
D03*
D31*
X233528Y57150D02*
D03*
Y80150D02*
D03*
Y103150D02*
D03*
D32*
X699982Y139671D02*
D03*
X706482D02*
D03*
X712982D02*
D03*
Y161671D02*
D03*
X706482D02*
D03*
X699982D02*
D03*
D33*
X512694Y142887D02*
D03*
X494694D02*
D03*
X494799Y127028D02*
D03*
X512800D02*
D03*
D34*
X427228Y137360D02*
D03*
X436728D02*
D03*
X446228D02*
D03*
Y162360D02*
D03*
X436728D02*
D03*
X427228D02*
D03*
X377698D02*
D03*
X387198D02*
D03*
X396698D02*
D03*
Y137360D02*
D03*
X387198D02*
D03*
X377698D02*
D03*
D35*
X206459Y87666D02*
D03*
X182759D02*
D03*
D36*
X168758Y207410D02*
D03*
Y257410D02*
D03*
D37*
X143359Y123170D02*
D03*
X117959D02*
D03*
Y184170D02*
D03*
X143359D02*
D03*
M02*
