M48
;Layer_Color=9474304
;FILE_FORMAT=4:4
METRIC,LZ
;TYPE=PLATED
T01F00S00C0.3000
T02F00S00C0.9900
T03F00S00C1.1000
T04F00S00C1.3000
T05F00S00C1.6000
T06F00S00C1.7000
T07F00S00C1.9000
T08F00S00C2.3000
T09F00S00C2.5000
%
T01
X0053706Y00022814
X0058706
X0063706
X00636118Y0009271
Y0010356
Y001143
Y0012573
Y0013589
Y0014732
X00636672Y00158573
Y0019956
X00612566Y00223857
X0061206Y00272814
X00582778Y0025908
X00572618
X0056206Y0017287
X00561758Y00099268
X0056206Y00072814
X0058706Y00122814
X0066206Y00072814
Y00272814
X0071206
X0076206
X0073706Y00322814
X0068706
X0063706
X0066206Y00372814
X0071206
X0076206
X0061206
X00531978Y00361451
Y00349451
Y00337451
X0053529Y00395518
X00478834Y0040005
X00452916Y00406031
X00415368Y0041467
X00408728Y00391294
X0041634Y00337017
X00402438Y0031623
X0039965Y00290816
X00448443Y00290683
X00459033Y00314181
X0043706Y00322814
X00491338Y0031623
Y0034163
X00492608Y0029083
X00507113Y00277429
X00519133Y00247475
X0048706Y00222814
X0043706
X0038706
X00363123Y0019553
X00366878Y0016256
X00345253Y00141658
X0033706Y00122814
X00336055Y00095145
X0031206Y00072814
X00320059Y00061063
X00259449Y00057431
X0023706Y00022814
X0018706
X0013706
X0016206Y00072814
X0013706Y00222814
X0018706
X00210127Y00207897
X0023706Y00222814
X0028706
X00319237Y0019553
X00305046Y0014271
X00270358Y0014351
X0028706Y00022814
X0038706
X0043706
X0044012Y00043113
X00425929Y00088575
X0040178Y00087734
X00451581Y00113712
X00460924Y00127485
X0048165Y00135284
X00493878Y0011557
X00487519Y00103484
X0051206Y00072814
X00495148Y0015494
X00474282Y00179763
X00454508Y0016256
X00412598
X0033683Y00291106
X0033706Y00322814
X00345653Y00352076
X00317813Y00366069
X00306Y00377
X00293032Y00360875
X0026206Y00372814
X00228673Y00345696
X00222298Y00314124
X0021206Y00272814
X0026206
X00284358Y00303951
X00176761Y00303499
X00181619Y00344178
X0016206Y00372814
X0011206
X0006206
X0003706Y00322814
X00019125Y00318668
X00020074Y00277201
X00020348Y0022239
X00020622Y00167853
X00020348Y00111946
X00085719Y00132675
X0011206Y00072814
X0008706Y00222814
X00114605Y00247763
X00106Y00266999
X0008706Y00322814
Y00422814
X0018706
X0023706
X0028706
X0033706
X0048706
X0058706
X0068706
T02
X0005Y0022
X00049Y00265
T03
X0038Y0007
X004
X00425
X00445
Y00096
X0038
T04
X00074Y0021
Y0028
T05
X00755Y0022
T06
X00083Y0011
Y0016
T07
X0073Y00194
X00781
Y00248
X0073
T08
X00342Y0004
X0041Y0003
X0048Y0004
T09
X0064Y004
X00138
Y00088
M30
