M48
;Layer_Color=9474304
;FILE_FORMAT=4:4
METRIC,LZ
T11F00S00C1.0000
%
G90
G05
T11
G00X00695582Y-00004311
M15
G01X0069607Y-00004108
G01X00697895Y-0000281
G01X00698776Y-00001402
G01X00698979Y-00000913
G01X00699302Y00001008
G01X00699307Y00001008
G01X00699307Y00001034
G01X00699351Y00001295
G01X00699306Y00001447
G01X00699263Y00029859
G01X00699559Y00035134
G01X00700601Y00041268
G01X00702324Y00047247
G01X00704705Y00052996
G01X00707715Y00058442
G01X00711316Y00063517
G01X00715462Y00068157
G01X00720102Y00072303
G01X00725177Y00075904
G01X00730623Y00078914
G01X00736372Y00081295
G01X00742351Y00083018
G01X00748486Y0008406
G01X00754698Y00084409
G01X00755487Y00084365
G01X00755487Y00084367
G01X00755777Y00084318
G01X00755777Y00084312
G01X00755812Y00084312
G01X00756072Y00084268
G01X00756262Y00084312
G01X00799853Y0008426
G01X00801772Y0008464
G01X00802261Y00084843
G01X00804086Y00086141
G01X00804967Y00087549
G01X0080517Y00088038
G01X00805492Y00089951
G01X00805498Y00089951
G01X00805498Y00089985
G01X00805541Y00090246
G01X00805498Y00090396
G01X00805518Y00399398
G01X0080568Y00400363
G01X00805308Y00401982
G01X00805106Y00402471
G01X00803807Y00404295
G01X008024Y00405177
G01X00801911Y00405379
G01X00799996Y00405702
G01X00799996Y00405707
G01X00799963Y00405707
G01X00799702Y00405751
G01X00799552Y00405707
G01X0075608Y00405695
G01X00751841Y00405933
G01X00745555Y00407001
G01X00739428Y00408766
G01X00733538Y00411206
G01X00727957Y00414291
G01X00722757Y0041798
G01X00718003Y00422229
G01X00713754Y00426983
G01X00710064Y00432183
G01X0070698Y00437764
G01X0070454Y00443655
G01X00702775Y00449782
G01X00701707Y00456068
G01X00701349Y00462434
G01X00701461Y00464421
G01X00701424Y00464423
G01X00701525Y00465019
G01X00701472Y00465249
G01X00700998Y00490329
G01X00700939Y00490328
G01X00700983Y00490631
G01X00700618Y00492147
G01X00700422Y00492622
G01X00699123Y00494447
G01X00697716Y00495328
G01X00697227Y00495531
G01X00695314Y00495853
G01X00695314Y00495859
G01X00695279Y00495859
G01X00695018Y00495903
G01X00694869Y00495859
G01X00085314Y00495911
G01X000834Y00495531
G01X00082911Y00495328
G01X00081087Y0049403
G01X00080205Y00492622
G01X00080003Y00492133
G01X00079682Y0049023
G01X00079675Y0049023
G01X00079675Y00490185
G01X00079631Y00489925
G01X00079674Y00489778
G01X00079624Y00464725
G01X00079748Y00464176
G01X00079418Y00458296
G01X00078393Y00452264
G01X00076699Y00446384
G01X00074358Y00440731
G01X00071398Y00435376
G01X00067857Y00430385
G01X0006378Y00425823
G01X00059217Y00421746
G01X00054227Y00418205
G01X00048872Y00415245
G01X00043219Y00412903
G01X00037339Y00411209
G01X00031307Y00410184
G01X00025682Y00409869
G01X00025509Y00409928
G01X00000128Y00409941
G01X00000128Y00409913
G01X-00000296Y00409984
G01X-00001913Y00409612
G01X-00002402Y00409409
G01X-00004227Y00408111
G01X-00005108Y00406703
G01X-00005311Y00406214
G01X-00005633Y00404302
G01X-00005639Y00404302
G01X-00005639Y00404267
G01X-00005683Y00404006
G01X-00005639Y00403856
G01X-00005691Y00084302
G01X-00005311Y00082388
G01X-00005108Y00081899
G01X-0000381Y00080074
G01X-00002402Y00079193
G01X-00001913Y0007899
G01X-00000007Y00078669
G01X-00000007Y00078662
G01X00000035Y00078662
G01X00000295Y00078618
G01X00000443Y00078662
G01X00023367Y00078632
G01X00023367Y00078676
G01X00023727Y00078616
G01X00024336Y00078755
G01X00031049Y00078315
G01X00037998Y00076933
G01X00044707Y00074655
G01X00051062Y00071521
G01X00056953Y00067585
G01X0006228Y00062913
G01X00066952Y00057586
G01X00070888Y00051695
G01X00074022Y0004534
G01X000763Y00038631
G01X00077682Y00031681
G01X00078113Y00025112
G01X00078029Y00025113
G01X00077977Y00001011
G01X00078357Y-00000913
G01X0007856Y-00001402
G01X00079858Y-00003227
G01X00081266Y-00004108
G01X00081755Y-00004311
G01X00083668Y-00004633
G01X00083668Y-00004639
G01X00083702Y-00004639
G01X00083963Y-00004683
G01X00084113Y-00004639
G01X00693668Y-00004691
G01X00695582Y-00004311
M16
M17
M30
