G04*
G04 #@! TF.GenerationSoftware,Altium Limited,Altium Designer,25.2.1 (25)*
G04*
G04 Layer_Physical_Order=1*
G04 Layer_Color=255*
%FSLAX44Y44*%
%MOMM*%
G71*
G04*
G04 #@! TF.SameCoordinates,87619A9C-F5BC-4542-8D18-A5A081A772CD*
G04*
G04*
G04 #@! TF.FilePolarity,Positive*
G04*
G01*
G75*
%ADD10C,0.2000*%
%ADD11C,0.2500*%
%ADD18C,0.8000*%
%ADD19R,0.9000X1.0000*%
%ADD20R,1.1900X0.7500*%
%ADD21R,0.7500X1.1900*%
G04:AMPARAMS|DCode=22|XSize=0.95mm|YSize=0.95mm|CornerRadius=0mm|HoleSize=0mm|Usage=FLASHONLY|Rotation=180.000|XOffset=0mm|YOffset=0mm|HoleType=Round|Shape=RoundedRectangle|*
%AMROUNDEDRECTD22*
21,1,0.9500,0.9500,0,0,180.0*
21,1,0.9500,0.9500,0,0,180.0*
1,1,0.0000,-0.4750,0.4750*
1,1,0.0000,0.4750,0.4750*
1,1,0.0000,0.4750,-0.4750*
1,1,0.0000,-0.4750,-0.4750*
%
%ADD22ROUNDEDRECTD22*%
G04:AMPARAMS|DCode=23|XSize=0.95mm|YSize=0.95mm|CornerRadius=0mm|HoleSize=0mm|Usage=FLASHONLY|Rotation=90.000|XOffset=0mm|YOffset=0mm|HoleType=Round|Shape=RoundedRectangle|*
%AMROUNDEDRECTD23*
21,1,0.9500,0.9500,0,0,90.0*
21,1,0.9500,0.9500,0,0,90.0*
1,1,0.0000,0.4750,0.4750*
1,1,0.0000,0.4750,-0.4750*
1,1,0.0000,-0.4750,-0.4750*
1,1,0.0000,-0.4750,0.4750*
%
%ADD23ROUNDEDRECTD23*%
%ADD24R,1.0000X0.9000*%
%ADD25R,1.2000X0.6000*%
%ADD26R,0.3000X0.8500*%
%ADD28R,0.9000X1.5000*%
%ADD29R,1.9000X1.2000*%
%ADD30R,2.4000X3.3000*%
%ADD31R,2.4000X1.0000*%
%ADD32R,0.4000X0.9500*%
%ADD33R,0.6000X1.2500*%
%ADD34R,0.6000X1.2000*%
%ADD35R,0.9800X3.7000*%
%ADD36R,1.6000X3.2000*%
%ADD37R,0.8000X1.4000*%
%ADD69R,1.8000X0.8000*%
%ADD70C,1.0000*%
%ADD71C,0.6000*%
%ADD72C,0.2450*%
%ADD73C,0.3000*%
%ADD74C,0.2540*%
%ADD75C,0.8000*%
%ADD76C,4.5000*%
%ADD77C,3.4500*%
%ADD78C,1.6500*%
%ADD79C,2.8500*%
%ADD80C,2.4000*%
%ADD81R,2.5500X2.5500*%
%ADD82C,2.5500*%
%ADD83C,1.5400*%
%ADD84C,1.9500*%
%ADD85C,0.7000*%
G36*
X693156Y464668D02*
X693181Y464553D01*
X693062Y462434D01*
X693472Y455140D01*
X694696Y447938D01*
X696718Y440918D01*
X699514Y434168D01*
X703047Y427775D01*
X707275Y421816D01*
X712143Y416369D01*
X717590Y411501D01*
X723548Y407274D01*
X729942Y403740D01*
X736691Y400945D01*
X743711Y398922D01*
X750913Y397698D01*
X755667Y397431D01*
X755917Y397382D01*
X797172D01*
Y258576D01*
X796221Y258065D01*
X795172Y257923D01*
X793257Y260257D01*
X790630Y262412D01*
X787633Y264014D01*
X784382Y265000D01*
X782270Y265208D01*
Y248000D01*
Y230792D01*
X784382Y231000D01*
X787633Y231986D01*
X790630Y233588D01*
X793257Y235743D01*
X795172Y238078D01*
X796221Y237935D01*
X797172Y237424D01*
Y204576D01*
X796221Y204065D01*
X795172Y203923D01*
X793257Y206257D01*
X790630Y208412D01*
X787633Y210014D01*
X784382Y211000D01*
X782270Y211208D01*
Y194000D01*
Y176792D01*
X784382Y177000D01*
X787633Y177986D01*
X790630Y179588D01*
X793257Y181743D01*
X795172Y184077D01*
X796221Y183935D01*
X797172Y183424D01*
Y92638D01*
X755778D01*
X755768Y92636D01*
X754698Y92696D01*
X747558Y92295D01*
X740507Y91097D01*
X733635Y89117D01*
X727027Y86380D01*
X720768Y82921D01*
X714935Y78782D01*
X709603Y74017D01*
X704837Y68684D01*
X700698Y62851D01*
X697239Y56592D01*
X694502Y49984D01*
X692522Y43112D01*
X691324Y36061D01*
X690986Y30047D01*
X690986D01*
X690982Y30000D01*
X690982Y28058D01*
Y3687D01*
X86355D01*
Y25181D01*
X86369Y25181D01*
X86355Y25510D01*
X86349Y25536D01*
X86259Y27148D01*
X86259Y27149D01*
X86009Y31600D01*
X84836Y38502D01*
X82898Y45228D01*
X80220Y51695D01*
X76834Y57822D01*
X72783Y63531D01*
X68118Y68751D01*
X62899Y73415D01*
X57189Y77466D01*
X51063Y80852D01*
X44595Y83531D01*
X37869Y85469D01*
X30967Y86642D01*
X25787Y86933D01*
X25510Y86988D01*
X25394D01*
X24719Y86993D01*
X23978Y87034D01*
X23408Y87002D01*
X21410Y86988D01*
X2687D01*
Y361000D01*
Y401603D01*
X25510D01*
X25524Y401591D01*
X25524Y401573D01*
X32234Y401950D01*
X39183Y403130D01*
X45956Y405081D01*
X52467Y407779D01*
X58636Y411188D01*
X64384Y415267D01*
X69640Y419963D01*
X74336Y425219D01*
X78415Y430967D01*
X81824Y437135D01*
X84521Y443647D01*
X86472Y450420D01*
X87653Y457368D01*
X87956Y462755D01*
X88048Y464405D01*
X88030Y464733D01*
X88000Y466725D01*
Y487533D01*
X692682D01*
X693156Y464668D01*
D02*
G37*
%LPC*%
G36*
X483819Y483859D02*
X481819Y483859D01*
X473319D01*
X471819Y483859D01*
X469819Y483859D01*
X461319D01*
X459819Y483859D01*
X457819Y483859D01*
X449319D01*
X447819Y483859D01*
X445819Y483859D01*
X437319D01*
X435819Y483859D01*
X433819Y483859D01*
X425319D01*
X423819Y483859D01*
X421819Y483859D01*
X413319D01*
X411819Y483859D01*
X409819Y483859D01*
X399819D01*
Y467959D01*
X409819D01*
X411319Y467959D01*
X413319Y467959D01*
X421819D01*
X423319Y467959D01*
X425319Y467959D01*
X433819D01*
X435319Y467959D01*
X437319Y467959D01*
X445819D01*
X447319Y467959D01*
X449319Y467959D01*
X457819D01*
X459319Y467959D01*
X461319Y467959D01*
X469819D01*
X471319Y467959D01*
X473319Y467959D01*
X481819D01*
X483319Y467959D01*
X485319Y467959D01*
X495319D01*
Y483859D01*
X483819Y483859D01*
D02*
G37*
G36*
X384410Y475501D02*
X377190D01*
Y470481D01*
X384410D01*
Y475501D01*
D02*
G37*
G36*
X374650D02*
X367430D01*
Y470481D01*
X374650D01*
Y475501D01*
D02*
G37*
G36*
X667477Y485000D02*
X664523D01*
X661625Y484423D01*
X658895Y483293D01*
X656438Y481651D01*
X654349Y479562D01*
X652707Y477105D01*
X651576Y474375D01*
X651000Y471477D01*
Y468523D01*
X651576Y465625D01*
X652707Y462895D01*
X654349Y460438D01*
X656438Y458349D01*
X658895Y456707D01*
X661625Y455576D01*
X664523Y455000D01*
X667477D01*
X670375Y455576D01*
X673105Y456707D01*
X675562Y458349D01*
X677651Y460438D01*
X679293Y462895D01*
X680424Y465625D01*
X681000Y468523D01*
Y471477D01*
X680424Y474375D01*
X679293Y477105D01*
X677651Y479562D01*
X675562Y481651D01*
X673105Y483293D01*
X670375Y484423D01*
X667477Y485000D01*
D02*
G37*
G36*
X114477D02*
X111523D01*
X108625Y484423D01*
X105895Y483293D01*
X103438Y481651D01*
X101349Y479562D01*
X99707Y477105D01*
X98576Y474375D01*
X98000Y471477D01*
Y468523D01*
X98576Y465625D01*
X99707Y462895D01*
X101349Y460438D01*
X103438Y458349D01*
X105895Y456707D01*
X108625Y455576D01*
X111523Y455000D01*
X114477D01*
X117375Y455576D01*
X120105Y456707D01*
X122562Y458349D01*
X124651Y460438D01*
X126293Y462895D01*
X127423Y465625D01*
X128000Y468523D01*
Y471477D01*
X127423Y474375D01*
X126293Y477105D01*
X124651Y479562D01*
X122562Y481651D01*
X120105Y483293D01*
X117375Y484423D01*
X114477Y485000D01*
D02*
G37*
G36*
X384410Y467941D02*
X375920D01*
X367430D01*
Y462921D01*
X367970D01*
Y451501D01*
X367430D01*
Y446481D01*
X375920D01*
X384410D01*
Y451501D01*
X383870D01*
Y462921D01*
X384410D01*
Y467941D01*
D02*
G37*
G36*
X455840Y445837D02*
Y440678D01*
X460999D01*
X460941Y441115D01*
X460282Y442706D01*
X459234Y444072D01*
X457868Y445121D01*
X456277Y445779D01*
X455840Y445837D01*
D02*
G37*
G36*
X439300D02*
X438862Y445779D01*
X437271Y445121D01*
X435905Y444072D01*
X434857Y442706D01*
X434198Y441115D01*
X434140Y440678D01*
X439300D01*
Y445837D01*
D02*
G37*
G36*
X384410Y443941D02*
X375920D01*
X367430D01*
Y438921D01*
Y434481D01*
X375920D01*
X384410D01*
Y438921D01*
Y443941D01*
D02*
G37*
G36*
X460999Y438138D02*
X455840D01*
Y432979D01*
X456277Y433036D01*
X457868Y433695D01*
X459234Y434743D01*
X460282Y436110D01*
X460941Y437701D01*
X460999Y438138D01*
D02*
G37*
G36*
X441840Y445837D02*
Y439408D01*
Y432979D01*
X442277Y433036D01*
X443868Y433695D01*
X445234Y434743D01*
X446282Y436110D01*
X446487Y436604D01*
X448652D01*
X448857Y436110D01*
X449905Y434743D01*
X451271Y433695D01*
X452862Y433036D01*
X453300Y432979D01*
Y439408D01*
Y445837D01*
X452862Y445779D01*
X451271Y445121D01*
X449905Y444072D01*
X448857Y442706D01*
X448652Y442211D01*
X446487D01*
X446282Y442706D01*
X445234Y444072D01*
X443868Y445121D01*
X442277Y445779D01*
X441840Y445837D01*
D02*
G37*
G36*
X439300Y438138D02*
X434140D01*
X434198Y437701D01*
X434857Y436110D01*
X435905Y434743D01*
X437271Y433695D01*
X438862Y433036D01*
X439300Y432979D01*
Y438138D01*
D02*
G37*
G36*
X559349Y432167D02*
X553579D01*
Y425897D01*
X559349D01*
Y432167D01*
D02*
G37*
G36*
X551039D02*
X545269D01*
Y425897D01*
X551039D01*
Y432167D01*
D02*
G37*
G36*
X464239Y427837D02*
Y422678D01*
X469399D01*
X469341Y423115D01*
X468682Y424706D01*
X467634Y426072D01*
X466268Y427121D01*
X464677Y427780D01*
X464239Y427837D01*
D02*
G37*
G36*
X433439D02*
Y422678D01*
X438599D01*
X438541Y423115D01*
X437882Y424706D01*
X436834Y426072D01*
X435467Y427121D01*
X433877Y427780D01*
X433439Y427837D01*
D02*
G37*
G36*
X461699D02*
X461262Y427780D01*
X459671Y427121D01*
X458305Y426072D01*
X457257Y424706D01*
X456598Y423115D01*
X456540Y422678D01*
X461699D01*
Y427837D01*
D02*
G37*
G36*
X430899D02*
X430462Y427780D01*
X428871Y427121D01*
X427505Y426072D01*
X426457Y424706D01*
X425798Y423115D01*
X425740Y422678D01*
X430899D01*
Y427837D01*
D02*
G37*
G36*
X469399Y420138D02*
X464239D01*
Y414979D01*
X464677Y415036D01*
X466268Y415695D01*
X467634Y416744D01*
X468682Y418110D01*
X469341Y419701D01*
X469399Y420138D01*
D02*
G37*
G36*
X438599D02*
X433439D01*
Y414979D01*
X433877Y415036D01*
X435467Y415695D01*
X436834Y416744D01*
X437882Y418110D01*
X438541Y419701D01*
X438599Y420138D01*
D02*
G37*
G36*
X461699D02*
X456540D01*
X456598Y419701D01*
X457257Y418110D01*
X458305Y416744D01*
X459671Y415695D01*
X461262Y415036D01*
X461699Y414979D01*
Y420138D01*
D02*
G37*
G36*
X430899D02*
X425740D01*
X425798Y419701D01*
X426457Y418110D01*
X427505Y416744D01*
X428871Y415695D01*
X430462Y415036D01*
X430899Y414979D01*
Y420138D01*
D02*
G37*
G36*
X642000Y424964D02*
Y402000D01*
X664964D01*
X664678Y404909D01*
X663246Y409629D01*
X660921Y413979D01*
X657792Y417792D01*
X653979Y420921D01*
X649629Y423246D01*
X644909Y424678D01*
X642000Y424964D01*
D02*
G37*
G36*
X638000D02*
X635091Y424678D01*
X630371Y423246D01*
X626021Y420921D01*
X622208Y417792D01*
X619079Y413979D01*
X616754Y409629D01*
X615322Y404909D01*
X615036Y402000D01*
X638000D01*
Y424964D01*
D02*
G37*
G36*
X140000D02*
Y402000D01*
X162964D01*
X162678Y404909D01*
X161246Y409629D01*
X158921Y413979D01*
X155792Y417792D01*
X151979Y420921D01*
X147629Y423246D01*
X142909Y424678D01*
X140000Y424964D01*
D02*
G37*
G36*
X136000D02*
X133091Y424678D01*
X128371Y423246D01*
X124021Y420921D01*
X120208Y417792D01*
X117079Y413979D01*
X114754Y409629D01*
X113322Y404909D01*
X113036Y402000D01*
X136000D01*
Y424964D01*
D02*
G37*
G36*
X526990Y475201D02*
X511090D01*
Y465201D01*
X511090Y463701D01*
X511090Y461701D01*
Y453201D01*
X511090Y451701D01*
X511090Y449701D01*
Y441201D01*
X511090Y439701D01*
X511090Y437701D01*
Y429201D01*
X511090Y427701D01*
X511090Y425701D01*
Y417201D01*
X511090Y415701D01*
X511090Y413701D01*
Y405201D01*
X511090Y403701D01*
X511090Y401701D01*
Y397049D01*
X509090Y396442D01*
X508895Y396734D01*
X506911Y398060D01*
X504570Y398526D01*
X502228Y398060D01*
X500244Y396734D01*
X498918Y394749D01*
X498452Y392408D01*
X498918Y390067D01*
X500244Y388082D01*
X502228Y386756D01*
X504570Y386291D01*
X506911Y386756D01*
X508895Y388082D01*
X509090Y388374D01*
X511090Y387768D01*
Y381201D01*
X511090Y379701D01*
X511090Y377701D01*
Y371649D01*
X509090Y371042D01*
X508895Y371334D01*
X506911Y372660D01*
X504570Y373126D01*
X502228Y372660D01*
X500244Y371334D01*
X498918Y369349D01*
X498452Y367008D01*
X498918Y364667D01*
X500244Y362682D01*
X502228Y361356D01*
X504570Y360891D01*
X506911Y361356D01*
X508895Y362682D01*
X509090Y362975D01*
X511090Y362368D01*
X511090Y355701D01*
X511090Y353701D01*
Y346249D01*
X509090Y345642D01*
X508895Y345934D01*
X506911Y347260D01*
X504570Y347726D01*
X502228Y347260D01*
X500244Y345934D01*
X499589Y344953D01*
X495732D01*
X495303Y345595D01*
X493484Y346811D01*
X491338Y347238D01*
X489192Y346811D01*
X487373Y345595D01*
X486157Y343776D01*
X485730Y341630D01*
X486157Y339484D01*
X487373Y337665D01*
X489192Y336449D01*
X491338Y336022D01*
X493484Y336449D01*
X495303Y337665D01*
X495718Y338285D01*
X499574D01*
X500244Y337282D01*
X502228Y335956D01*
X504570Y335491D01*
X506911Y335956D01*
X508895Y337282D01*
X509090Y337575D01*
X511090Y336968D01*
X511090Y331701D01*
X511090Y329701D01*
X511090Y320849D01*
X509090Y320242D01*
X508895Y320534D01*
X506911Y321860D01*
X504570Y322326D01*
X502228Y321860D01*
X500244Y320534D01*
X499575Y319533D01*
X495746D01*
X495303Y320195D01*
X493484Y321411D01*
X491338Y321838D01*
X489192Y321411D01*
X487373Y320195D01*
X486157Y318376D01*
X485730Y316230D01*
X486157Y314084D01*
X487373Y312265D01*
X489192Y311049D01*
X491338Y310622D01*
X493484Y311049D01*
X495303Y312265D01*
X495732Y312906D01*
X499560D01*
X500244Y311882D01*
X502228Y310556D01*
X504570Y310091D01*
X506911Y310556D01*
X508895Y311882D01*
X509090Y312174D01*
X511090Y311568D01*
X511090Y307701D01*
X511090Y306093D01*
X509676Y304678D01*
X421609D01*
X420243Y304407D01*
X419085Y303633D01*
X407126Y291674D01*
X404956Y292332D01*
X404831Y292962D01*
X403615Y294782D01*
X401796Y295997D01*
X399650Y296424D01*
X397504Y295997D01*
X395684Y294782D01*
X393941Y295772D01*
X392910Y296460D01*
X390569Y296926D01*
X388228Y296460D01*
X386243Y295134D01*
X385870Y294575D01*
X383870Y294961D01*
X383870Y296961D01*
Y305461D01*
X383870Y306961D01*
X383870Y308961D01*
Y311835D01*
X385870Y312441D01*
X386243Y311882D01*
X388228Y310556D01*
X390569Y310091D01*
X392910Y310556D01*
X394895Y311882D01*
X395579Y312906D01*
X398045D01*
X398473Y312265D01*
X400292Y311049D01*
X402438Y310622D01*
X404584Y311049D01*
X406403Y312265D01*
X407619Y314084D01*
X408046Y316230D01*
X407619Y318376D01*
X406403Y320195D01*
X404584Y321411D01*
X402438Y321838D01*
X400292Y321411D01*
X398473Y320195D01*
X398030Y319533D01*
X395564D01*
X394895Y320534D01*
X392910Y321860D01*
X390569Y322326D01*
X388228Y321860D01*
X386243Y320534D01*
X385870Y319975D01*
X383870Y320582D01*
X383870Y320961D01*
Y329461D01*
X383870Y330961D01*
X383870Y332961D01*
Y337235D01*
X385870Y337841D01*
X386243Y337282D01*
X388228Y335956D01*
X390569Y335491D01*
X392910Y335956D01*
X394895Y337282D01*
X396221Y339267D01*
X396687Y341608D01*
X396221Y343949D01*
X394895Y345934D01*
X392910Y347260D01*
X390569Y347726D01*
X388228Y347260D01*
X386243Y345934D01*
X385870Y345375D01*
X383870Y345982D01*
Y353461D01*
X383870Y354961D01*
X383870Y356961D01*
Y362635D01*
X385870Y363241D01*
X386243Y362682D01*
X388228Y361356D01*
X390569Y360891D01*
X392910Y361356D01*
X394895Y362682D01*
X396221Y364667D01*
X396687Y367008D01*
X396221Y369349D01*
X394895Y371334D01*
X392910Y372660D01*
X390569Y373126D01*
X388228Y372660D01*
X386243Y371334D01*
X385870Y370775D01*
X383870Y371382D01*
Y377461D01*
X383870Y378961D01*
X383870Y380961D01*
Y388035D01*
X385870Y388641D01*
X386243Y388082D01*
X388228Y386756D01*
X390569Y386291D01*
X392910Y386756D01*
X394895Y388082D01*
X396221Y390067D01*
X396687Y392408D01*
X396221Y394749D01*
X394895Y396734D01*
X392910Y398060D01*
X390569Y398526D01*
X388228Y398060D01*
X386410Y396845D01*
X385594Y397037D01*
X384410Y397590D01*
Y403501D01*
X383870D01*
Y413461D01*
X383870Y414961D01*
X383870Y416961D01*
Y426921D01*
X384410D01*
Y431941D01*
X375920D01*
X367430D01*
Y426921D01*
X367970D01*
Y416961D01*
X367970Y415461D01*
X367970Y413461D01*
Y403501D01*
X367430D01*
Y398481D01*
X375920D01*
Y395941D01*
X367430D01*
Y390921D01*
X367970D01*
Y380961D01*
X367970Y379461D01*
X367970Y377461D01*
Y368961D01*
X367970Y367461D01*
X367970Y365461D01*
Y356961D01*
X367970Y355461D01*
X367970Y353461D01*
Y344961D01*
X367970Y343461D01*
X367970Y341461D01*
Y332961D01*
X367970Y331461D01*
X367970Y329461D01*
Y320961D01*
X367970Y319461D01*
X367970Y317461D01*
Y308961D01*
X367970Y307461D01*
X367970Y305461D01*
Y296961D01*
X367970Y295461D01*
X367970Y293461D01*
Y284961D01*
X367970Y283461D01*
X367970Y281461D01*
Y272961D01*
X367970Y271461D01*
X367970Y269461D01*
Y259461D01*
X383870D01*
Y261035D01*
X385870Y261641D01*
X386243Y261082D01*
X388228Y259756D01*
X390569Y259291D01*
X392501Y259675D01*
X392703Y259573D01*
X393315Y257484D01*
X359109Y223279D01*
X314808D01*
X313443Y223007D01*
X312285Y222233D01*
X267835Y177783D01*
X267061Y176626D01*
X266790Y175260D01*
Y163700D01*
X258858D01*
Y159269D01*
X254566D01*
X225211Y188624D01*
Y208562D01*
X224940Y209928D01*
X224166Y211085D01*
X199980Y235272D01*
X198822Y236045D01*
X197456Y236317D01*
X144660D01*
X135569Y245408D01*
Y257410D01*
Y277000D01*
Y301000D01*
X138500D01*
Y318562D01*
X138500Y320000D01*
X140267Y320562D01*
X160924D01*
X161910Y318562D01*
X161886Y318530D01*
X161180Y316827D01*
X160940Y315000D01*
X161180Y313173D01*
X161886Y311470D01*
X163008Y310008D01*
X164470Y308885D01*
X166173Y308180D01*
X168000Y307940D01*
X169827Y308180D01*
X171530Y308885D01*
X172992Y310008D01*
X174114Y311470D01*
X174820Y313173D01*
X175060Y315000D01*
X174924Y316033D01*
X176819Y316967D01*
X200065Y293721D01*
X200065Y293721D01*
X201132Y293008D01*
X202390Y292757D01*
X202391Y292757D01*
X212636D01*
Y289046D01*
X225636D01*
Y303046D01*
X212636D01*
Y299334D01*
X203752D01*
X179691Y323395D01*
X180456Y325243D01*
X212637D01*
Y321531D01*
X225637D01*
Y335531D01*
X212637D01*
Y331819D01*
X171768D01*
X171371Y333819D01*
X171530Y333885D01*
X172992Y335008D01*
X174114Y336470D01*
X174820Y338173D01*
X175060Y340000D01*
X174820Y341827D01*
X174114Y343530D01*
X172992Y344992D01*
X171530Y346115D01*
X169827Y346820D01*
X168000Y347060D01*
X166173Y346820D01*
X164470Y346115D01*
X163008Y344992D01*
X161886Y343530D01*
X161180Y341827D01*
X160940Y340000D01*
X161180Y338173D01*
X161886Y336470D01*
X163008Y335008D01*
X164470Y333885D01*
X164629Y333819D01*
X164232Y331819D01*
X140425D01*
X138500Y332000D01*
X138500Y333819D01*
Y351000D01*
X138500D01*
X137969Y352282D01*
X145593Y359906D01*
X213448D01*
Y356220D01*
X226448D01*
Y370220D01*
X213448D01*
Y366534D01*
X144220D01*
X142952Y366281D01*
X141877Y365563D01*
X129657Y353343D01*
X128939Y352268D01*
X128686Y351000D01*
X125000Y351000D01*
X123500Y351000D01*
X111500D01*
Y332000D01*
X113377D01*
X114712Y330672D01*
X114962Y329413D01*
X115675Y328347D01*
X117346Y326675D01*
X117632Y324899D01*
X117507Y324007D01*
X115675Y322175D01*
X114962Y321108D01*
X114742Y320000D01*
X111500D01*
Y301000D01*
X123500D01*
X125000Y301000D01*
X127017Y301000D01*
X128431Y299586D01*
Y277000D01*
Y257410D01*
Y243930D01*
X128703Y242565D01*
X129477Y241407D01*
X140658Y230225D01*
X141816Y229452D01*
X143182Y229180D01*
X195978D01*
X209699Y215459D01*
X209041Y213289D01*
X207981Y213078D01*
X207128Y212508D01*
X178758D01*
Y225410D01*
X158758D01*
Y189410D01*
X163660D01*
Y187090D01*
X162129D01*
Y173590D01*
X162129D01*
Y173120D01*
X162129D01*
Y159620D01*
X163660D01*
Y155506D01*
X160559D01*
Y146104D01*
X123075D01*
X121124Y145716D01*
X119470Y144611D01*
X114354Y139495D01*
X113249Y137841D01*
X112861Y135890D01*
Y132170D01*
X111959D01*
Y114170D01*
X123959D01*
Y132170D01*
X123959D01*
X123448Y134170D01*
X125186Y135908D01*
X160559D01*
Y126506D01*
X168067D01*
X168559Y126408D01*
X175926D01*
X176499Y125835D01*
Y123626D01*
X173159D01*
Y110126D01*
X175763D01*
X175859Y108166D01*
X175859D01*
Y67166D01*
X189659D01*
Y108166D01*
X189659D01*
X189756Y110126D01*
X199463D01*
X199559Y108166D01*
X199559Y108126D01*
Y67166D01*
X203202D01*
Y63881D01*
X200008D01*
Y63881D01*
X198267D01*
Y63881D01*
X184767D01*
Y51197D01*
X184228Y49420D01*
X184228Y48604D01*
Y43401D01*
X191518D01*
Y42130D01*
X192787D01*
Y34841D01*
X197467D01*
X198808Y34840D01*
X200807Y34841D01*
X205487D01*
Y42130D01*
X206758D01*
Y43401D01*
X214048D01*
Y48604D01*
X214048Y49420D01*
X213816Y50183D01*
X215089Y52183D01*
X219528D01*
Y50150D01*
X247528D01*
Y52183D01*
X257642D01*
X259449Y51824D01*
X261595Y52250D01*
X263415Y53466D01*
X264630Y55285D01*
X265057Y57431D01*
X264630Y59577D01*
X263415Y61396D01*
X261595Y62612D01*
X259449Y63039D01*
X257303Y62612D01*
X256954Y62379D01*
X247528D01*
Y64150D01*
X219528D01*
Y62379D01*
X213507D01*
Y63881D01*
X213398D01*
Y112036D01*
X217269D01*
Y112036D01*
X218829Y111699D01*
X218829Y111699D01*
X219130Y111699D01*
X232329D01*
Y124382D01*
X232869Y126159D01*
X232869Y126975D01*
Y132178D01*
X225579D01*
Y133448D01*
X224309D01*
Y140738D01*
X218732Y140738D01*
X217269Y142036D01*
X217094D01*
X216362Y143733D01*
X216362D01*
Y157733D01*
X203362D01*
Y155604D01*
X193559D01*
X193067Y155506D01*
X185559D01*
Y146546D01*
X185019D01*
Y142276D01*
X193559D01*
Y139736D01*
X185019D01*
Y135466D01*
X185019D01*
X184857Y134725D01*
X182670Y134084D01*
X181642Y135111D01*
X179988Y136216D01*
X178037Y136604D01*
X176559D01*
Y145506D01*
Y155506D01*
X173856D01*
Y158014D01*
X175856Y159303D01*
X176588Y159080D01*
X177405Y159080D01*
X182608D01*
Y166370D01*
X183878D01*
Y167640D01*
X191168D01*
Y173050D01*
Y179070D01*
X183878D01*
Y180340D01*
X182608D01*
Y187630D01*
X179290D01*
X178758Y189410D01*
X178758Y189630D01*
Y202312D01*
X209640D01*
X209827Y202349D01*
X210127Y202289D01*
X212273Y202716D01*
X214092Y203932D01*
X214998Y205287D01*
X216776Y205925D01*
X217396Y205999D01*
X218074Y205496D01*
Y187146D01*
X218346Y185780D01*
X219119Y184622D01*
X250565Y153177D01*
X251723Y152403D01*
X253088Y152132D01*
X258858D01*
Y147700D01*
X264138D01*
X265207Y145700D01*
X265177Y145656D01*
X264750Y143510D01*
X265177Y141364D01*
X266393Y139545D01*
X268212Y138329D01*
X270358Y137902D01*
X272504Y138329D01*
X274324Y139545D01*
X275539Y141364D01*
X275966Y143510D01*
X275539Y145656D01*
X275510Y145700D01*
X276579Y147700D01*
X281858D01*
Y152132D01*
X286255D01*
X286956Y151218D01*
X288418Y150096D01*
X290121Y149390D01*
X291948Y149150D01*
X293776Y149390D01*
X295478Y150096D01*
X296941Y151218D01*
X297642Y152132D01*
X297788D01*
X299154Y152403D01*
X300312Y153177D01*
X322002Y174867D01*
X346284D01*
Y172337D01*
X360284D01*
Y174867D01*
X380448D01*
Y172440D01*
X383630D01*
Y170360D01*
X372698D01*
Y167349D01*
X371440Y166790D01*
X370698Y166622D01*
X369024Y167741D01*
X366878Y168168D01*
X364732Y167741D01*
X362913Y166525D01*
X362307Y165619D01*
X360284D01*
Y168337D01*
X346284D01*
Y155337D01*
X360284D01*
Y159501D01*
X362307D01*
X362913Y158595D01*
X364732Y157379D01*
X366878Y156952D01*
X369024Y157379D01*
X370698Y158498D01*
X371440Y158330D01*
X372698Y157771D01*
Y154360D01*
X401698D01*
Y156655D01*
X403546Y157420D01*
X411999Y148967D01*
X412992Y148304D01*
X414162Y148071D01*
X414546D01*
X415312Y146223D01*
X410435Y141347D01*
X409772Y140355D01*
X409539Y139184D01*
X409539Y139184D01*
Y116665D01*
X391933Y99059D01*
X389827D01*
X388953Y101169D01*
X387310Y103310D01*
X385169Y104953D01*
X382676Y105986D01*
X380000Y106338D01*
X377324Y105986D01*
X374831Y104953D01*
X372690Y103310D01*
X371047Y101169D01*
X370014Y98676D01*
X369662Y96000D01*
X370014Y93324D01*
X371047Y90831D01*
X372690Y88690D01*
X374831Y87047D01*
X377324Y86014D01*
X380000Y85662D01*
X382676Y86014D01*
X385169Y87047D01*
X387310Y88690D01*
X388953Y90831D01*
X389827Y92941D01*
X393200D01*
X393200Y92941D01*
X394371Y93174D01*
X395363Y93837D01*
X414761Y113235D01*
X414761Y113235D01*
X415424Y114228D01*
X415657Y115398D01*
Y137917D01*
X420228Y142488D01*
X422228Y141660D01*
Y129360D01*
X424169D01*
Y111591D01*
X424169Y111591D01*
X424402Y110421D01*
X425065Y109428D01*
X435249Y99244D01*
X435014Y98676D01*
X434662Y96000D01*
X435014Y93324D01*
X436047Y90831D01*
X437690Y88690D01*
X439831Y87047D01*
X442324Y86014D01*
X445000Y85662D01*
X447676Y86014D01*
X450169Y87047D01*
X452310Y88690D01*
X453953Y90831D01*
X454986Y93324D01*
X455338Y96000D01*
X454986Y98676D01*
X453953Y101169D01*
X452310Y103310D01*
X450169Y104953D01*
X447676Y105986D01*
X445000Y106338D01*
X442324Y105986D01*
X439831Y104953D01*
X438903Y104242D01*
X430287Y112858D01*
Y127193D01*
X431188Y128820D01*
X435458D01*
Y137360D01*
X437998D01*
Y128820D01*
X442268D01*
Y129360D01*
X451228D01*
Y145360D01*
X451058D01*
X450979Y145496D01*
X452191Y147364D01*
X458831Y140724D01*
X458831Y140724D01*
X459823Y140061D01*
X460994Y139828D01*
X460994Y139828D01*
X489694D01*
Y134637D01*
X489799D01*
Y130544D01*
X465495D01*
X464889Y131450D01*
X463070Y132666D01*
X460924Y133092D01*
X458778Y132666D01*
X456958Y131450D01*
X455743Y129631D01*
X455316Y127485D01*
X455743Y125339D01*
X456958Y123519D01*
X458778Y122304D01*
X460924Y121877D01*
X463070Y122304D01*
X464889Y123519D01*
X465495Y124426D01*
X489799D01*
Y119365D01*
X488697Y117716D01*
X488270Y115570D01*
X488697Y113424D01*
X489913Y111605D01*
X491108Y110806D01*
X491149Y110079D01*
X490614Y109569D01*
X489221Y108753D01*
X487519Y109092D01*
X485373Y108665D01*
X483554Y107449D01*
X482338Y105630D01*
X481912Y103484D01*
X482338Y101338D01*
X483554Y99519D01*
X485373Y98303D01*
X487519Y97876D01*
X489665Y98303D01*
X490412Y98802D01*
X492396Y97741D01*
X491872Y96018D01*
X491872Y95202D01*
Y89998D01*
X499162D01*
Y88728D01*
X500432D01*
Y81438D01*
X504822D01*
X506770Y81313D01*
X508400Y81313D01*
X512790D01*
Y88603D01*
X515330D01*
Y81313D01*
X521350D01*
Y85123D01*
X522978Y86020D01*
X523350Y86020D01*
X533248D01*
Y92560D01*
X534518D01*
Y93830D01*
X546058D01*
Y99100D01*
X545518D01*
Y108560D01*
Y119560D01*
Y130560D01*
Y141560D01*
Y152560D01*
Y164560D01*
X523518D01*
Y152560D01*
Y142582D01*
X517694D01*
Y151137D01*
X507694D01*
Y134637D01*
X507800D01*
Y118778D01*
X517800D01*
Y124971D01*
X523518D01*
Y119560D01*
Y107086D01*
X520810D01*
Y110352D01*
X507310D01*
Y110353D01*
X505912Y110478D01*
Y110478D01*
X505362Y110478D01*
X499483D01*
X498427Y112478D01*
X499059Y113424D01*
X499486Y115570D01*
X499246Y116778D01*
X499799Y118778D01*
X499799D01*
Y135278D01*
X499694D01*
Y151137D01*
X499694Y151137D01*
X500280Y152698D01*
X500329Y152794D01*
X500329Y152794D01*
X500756Y154940D01*
X500329Y157086D01*
X499114Y158905D01*
X497294Y160121D01*
X495148Y160548D01*
X493002Y160121D01*
X491183Y158905D01*
X489967Y157086D01*
X489540Y154940D01*
X489899Y153137D01*
X489694Y151137D01*
X489694D01*
Y145945D01*
X462261D01*
X454913Y153293D01*
X453921Y153956D01*
X452750Y154189D01*
X452522Y154369D01*
X452573Y155422D01*
X454508Y156952D01*
X456654Y157379D01*
X458474Y158595D01*
X459689Y160414D01*
X460116Y162560D01*
X459689Y164706D01*
X458474Y166525D01*
X456654Y167741D01*
X454508Y168168D01*
X453228Y167913D01*
X451228Y169205D01*
Y170360D01*
X440297D01*
Y172440D01*
X443478D01*
Y185123D01*
X444018Y186900D01*
X444018Y187716D01*
Y192920D01*
X436728D01*
Y194190D01*
D01*
Y192920D01*
X429438D01*
Y187716D01*
X429438Y186900D01*
X429978Y185123D01*
Y184173D01*
X428564Y182759D01*
X395363D01*
X393948Y184173D01*
Y185123D01*
X394488Y186900D01*
X394488Y187716D01*
Y192920D01*
X387198D01*
X379908D01*
Y187716D01*
X379908Y186900D01*
X380448Y185123D01*
Y182004D01*
X360284D01*
Y185337D01*
X346284D01*
Y182004D01*
X320523D01*
X319158Y181732D01*
X318000Y180958D01*
X298164Y161122D01*
X296941Y161202D01*
X295478Y162325D01*
X293776Y163030D01*
X291948Y163270D01*
X290121Y163030D01*
X288418Y162325D01*
X286956Y161202D01*
X285834Y159740D01*
X285639Y159269D01*
X281858D01*
Y163700D01*
X273927D01*
Y173782D01*
X316287Y216141D01*
X360587D01*
X361953Y216413D01*
X363111Y217187D01*
X397992Y252068D01*
X399840Y251303D01*
Y250271D01*
X409840D01*
X411340Y250271D01*
X413340Y250271D01*
X421840D01*
X423340Y250271D01*
X425340Y250271D01*
X433840D01*
X435340Y250271D01*
X437340Y250271D01*
X445840D01*
X447340Y250271D01*
X449340Y250271D01*
X457840D01*
X459340Y250271D01*
X461340Y250271D01*
X471300D01*
Y249731D01*
X476320D01*
Y258221D01*
Y266711D01*
X471300D01*
Y266171D01*
X461340D01*
X459840Y266171D01*
X457840Y266171D01*
X449340D01*
X447840Y266171D01*
X445840Y266171D01*
X437340D01*
X435840Y266171D01*
X433840Y266171D01*
X425340D01*
X423840Y266171D01*
X421840Y266171D01*
X413340D01*
X411840Y266171D01*
X409840Y266171D01*
X401638D01*
Y276093D01*
X423087Y297541D01*
X489153D01*
X489759Y295541D01*
X488643Y294795D01*
X487427Y292976D01*
X487000Y290830D01*
X487427Y288684D01*
X488643Y286865D01*
X490462Y285649D01*
X492608Y285222D01*
X494754Y285649D01*
X496573Y286865D01*
X497002Y287506D01*
X499560D01*
X500244Y286482D01*
X502228Y285156D01*
X504570Y284691D01*
X506911Y285156D01*
X507922Y285832D01*
X509962Y285039D01*
X510076Y284368D01*
X510047Y284060D01*
X508316Y282797D01*
X507113Y283036D01*
X504967Y282610D01*
X503148Y281394D01*
X501933Y279575D01*
X501506Y277429D01*
X501933Y275283D01*
X503148Y273463D01*
X503357Y273324D01*
X502935Y271201D01*
X502228Y271060D01*
X500244Y269734D01*
X498918Y267749D01*
X498452Y265408D01*
X498918Y263067D01*
X500244Y261082D01*
X501484Y260254D01*
Y248472D01*
X500987Y248266D01*
X499525Y247144D01*
X498403Y245682D01*
X497697Y243979D01*
X497457Y242152D01*
X497697Y240325D01*
X498403Y238622D01*
X499525Y237160D01*
X500987Y236038D01*
X502690Y235332D01*
X504517Y235091D01*
X506344Y235332D01*
X508047Y236038D01*
X509510Y237160D01*
X510632Y238622D01*
X511337Y240325D01*
X511577Y242152D01*
X511337Y243979D01*
X510632Y245682D01*
X509510Y247144D01*
X508047Y248266D01*
X507602Y248451D01*
Y260206D01*
X507740Y260310D01*
X508895Y261082D01*
X509037Y261294D01*
X509128Y261363D01*
X511090Y260768D01*
Y259701D01*
X515819D01*
Y251876D01*
X515168Y251441D01*
X513952Y249621D01*
X513525Y247475D01*
X513952Y245329D01*
X515168Y243510D01*
X516987Y242295D01*
X519133Y241868D01*
X521279Y242295D01*
X523098Y243510D01*
X523534Y244162D01*
X559108D01*
X617096Y186174D01*
X618171Y185455D01*
X619439Y185203D01*
X640358D01*
Y182560D01*
X662358D01*
Y196226D01*
X667487D01*
Y192884D01*
X681487D01*
Y192884D01*
X682924Y192822D01*
Y192822D01*
X683461Y192822D01*
X696924D01*
Y198078D01*
X698800Y198377D01*
X698924Y198377D01*
X702466D01*
Y185495D01*
X700466Y184895D01*
X699707Y185402D01*
X698431Y185656D01*
X696924D01*
Y188822D01*
X682924D01*
Y188822D01*
X681487Y188884D01*
Y188884D01*
X680950Y188884D01*
X667487D01*
Y175884D01*
X674819D01*
Y168859D01*
X670816D01*
Y161318D01*
Y153778D01*
X674819D01*
Y151375D01*
X675073Y150099D01*
X675795Y149017D01*
X687499Y137313D01*
X688581Y136591D01*
X689857Y136337D01*
X695982D01*
Y133295D01*
X695982Y132921D01*
X695079Y131295D01*
X690529D01*
Y125275D01*
X697819D01*
Y124005D01*
X699089D01*
Y116715D01*
X704293D01*
X705109Y116715D01*
X706885Y117255D01*
X719569D01*
Y130755D01*
X716316D01*
Y132921D01*
X716982D01*
Y146242D01*
X720630Y149890D01*
X721353Y150972D01*
X721607Y152248D01*
Y168996D01*
X721353Y170272D01*
X720630Y171354D01*
X709134Y182850D01*
Y198377D01*
X711211D01*
X711598Y198162D01*
X712905Y196420D01*
X712792Y195270D01*
X728730D01*
Y211208D01*
X726618Y211000D01*
X723367Y210014D01*
X720370Y208412D01*
X717743Y206257D01*
X715588Y203630D01*
X714800Y202157D01*
X712800Y202658D01*
Y211377D01*
X698800D01*
Y206120D01*
X696924Y205822D01*
X696800Y205822D01*
X682924D01*
Y205822D01*
X681487Y205884D01*
Y205884D01*
X680950Y205884D01*
X667487D01*
Y202894D01*
X664432D01*
X662898Y204020D01*
Y209290D01*
X639818D01*
Y206295D01*
X637818Y204940D01*
X636672Y205168D01*
X634526Y204741D01*
X632707Y203525D01*
X631491Y201706D01*
X631064Y199560D01*
X631491Y197414D01*
X632707Y195595D01*
X634526Y194379D01*
X636672Y193952D01*
X637393Y194096D01*
X638660Y192687D01*
X638770Y192097D01*
X638669Y191830D01*
X620812D01*
X562824Y249818D01*
X561749Y250537D01*
X560481Y250789D01*
X523534D01*
X523098Y251441D01*
X522447Y251876D01*
Y259701D01*
X526990Y259701D01*
X527356Y257853D01*
Y254973D01*
X533376D01*
Y262263D01*
X535916D01*
Y254973D01*
X540228D01*
X542211Y254932D01*
X543919Y254932D01*
X548231D01*
Y262222D01*
X549501D01*
Y263492D01*
X556791D01*
Y268696D01*
X556791Y269512D01*
X556251Y271288D01*
Y283972D01*
X542751D01*
Y283972D01*
X541396Y284013D01*
Y284013D01*
X529178D01*
X527896Y284013D01*
X527530Y285862D01*
Y288181D01*
X519040D01*
Y290721D01*
X527530D01*
Y292458D01*
X527768Y294360D01*
X528958Y294360D01*
X541268D01*
Y294360D01*
X543008D01*
Y294360D01*
X556508D01*
Y307044D01*
X557048Y308820D01*
X557048Y309636D01*
Y314840D01*
X549758D01*
Y316110D01*
X548488D01*
Y323400D01*
X543808D01*
X542468Y323400D01*
X540468Y323400D01*
X535788D01*
Y316110D01*
X533248D01*
Y323400D01*
X527228Y323400D01*
X526990Y325302D01*
X526990Y331764D01*
X528990Y332833D01*
X529832Y332270D01*
X531978Y331843D01*
X534124Y332270D01*
X535943Y333486D01*
X537159Y335305D01*
X537586Y337451D01*
X537159Y339597D01*
X535943Y341417D01*
X534561Y342340D01*
X534408Y343019D01*
Y343884D01*
X534561Y344562D01*
X535943Y345486D01*
X537159Y347305D01*
X537586Y349451D01*
X537159Y351597D01*
X535943Y353416D01*
X534561Y354340D01*
X534408Y355019D01*
Y355884D01*
X534561Y356562D01*
X535943Y357486D01*
X537159Y359305D01*
X537586Y361451D01*
X537159Y363597D01*
X535943Y365416D01*
X534124Y366632D01*
X531978Y367059D01*
X529832Y366632D01*
X528990Y366070D01*
X526990Y367139D01*
X526990Y369201D01*
Y377701D01*
X526990Y379201D01*
X526990Y380978D01*
X528405Y382392D01*
X553784D01*
X569559Y366618D01*
Y263651D01*
X568653Y263045D01*
X567437Y261226D01*
X567010Y259080D01*
X567437Y256934D01*
X568653Y255115D01*
X570472Y253899D01*
X572618Y253472D01*
X574764Y253899D01*
X576462Y255033D01*
X577037Y255286D01*
X578359D01*
X578935Y255033D01*
X580632Y253899D01*
X582778Y253472D01*
X584924Y253899D01*
X586743Y255115D01*
X587959Y256934D01*
X588386Y259080D01*
X587959Y261226D01*
X586743Y263045D01*
X585837Y263651D01*
Y388361D01*
X585837Y388362D01*
X585604Y389532D01*
X584941Y390524D01*
X584941Y390524D01*
X563464Y412001D01*
X562472Y412664D01*
X561301Y412897D01*
X561301Y412897D01*
X558739D01*
Y415340D01*
X559349Y417087D01*
X559349Y418586D01*
Y423357D01*
X552309D01*
X545269D01*
Y418643D01*
X545269Y417087D01*
X545739Y415282D01*
Y402838D01*
X558739D01*
Y405246D01*
X560739Y406075D01*
X579719Y387094D01*
Y263651D01*
X578813Y263045D01*
X576899Y263302D01*
X575677Y264451D01*
Y367884D01*
X575677Y367884D01*
X575444Y369055D01*
X574781Y370047D01*
X574781Y370047D01*
X557214Y387614D01*
X556222Y388277D01*
X555051Y388510D01*
X555051Y388510D01*
X528405D01*
X526990Y389924D01*
Y391201D01*
X526990Y393201D01*
X526990Y402233D01*
X528740Y402838D01*
X528990Y402838D01*
X541740D01*
Y416838D01*
X541740D01*
X541809Y417627D01*
X541809D01*
X541809Y418810D01*
Y431627D01*
X528990D01*
X528809Y431627D01*
X526990Y432066D01*
X526990Y439201D01*
X526990Y441201D01*
Y449701D01*
X526990Y451201D01*
X526990Y453201D01*
Y461701D01*
X526990Y463201D01*
X526990Y465201D01*
Y475201D01*
D02*
G37*
G36*
X464239Y391837D02*
Y386678D01*
X469399D01*
X469341Y387115D01*
X468682Y388706D01*
X467634Y390072D01*
X466268Y391121D01*
X464677Y391780D01*
X464239Y391837D01*
D02*
G37*
G36*
X433439D02*
Y386678D01*
X438599D01*
X438541Y387115D01*
X437882Y388706D01*
X436834Y390072D01*
X435467Y391121D01*
X433877Y391780D01*
X433439Y391837D01*
D02*
G37*
G36*
X461699D02*
X461262Y391780D01*
X459671Y391121D01*
X458305Y390072D01*
X457257Y388706D01*
X456598Y387115D01*
X456540Y386678D01*
X461699D01*
Y391837D01*
D02*
G37*
G36*
X430899D02*
X430462Y391780D01*
X428871Y391121D01*
X427505Y390072D01*
X426457Y388706D01*
X425798Y387115D01*
X425740Y386678D01*
X430899D01*
Y391837D01*
D02*
G37*
G36*
X469399Y384138D02*
X464239D01*
Y378979D01*
X464677Y379036D01*
X466268Y379695D01*
X467634Y380743D01*
X468682Y382110D01*
X469341Y383701D01*
X469399Y384138D01*
D02*
G37*
G36*
X438599D02*
X433439D01*
Y378979D01*
X433877Y379036D01*
X435467Y379695D01*
X436834Y380743D01*
X437882Y382110D01*
X438541Y383701D01*
X438599Y384138D01*
D02*
G37*
G36*
X461699D02*
X456540D01*
X456598Y383701D01*
X457257Y382110D01*
X458305Y380743D01*
X459671Y379695D01*
X461262Y379036D01*
X461699Y378979D01*
Y384138D01*
D02*
G37*
G36*
X430899D02*
X425740D01*
X425798Y383701D01*
X426457Y382110D01*
X427505Y380743D01*
X428871Y379695D01*
X430462Y379036D01*
X430899Y378979D01*
Y384138D01*
D02*
G37*
G36*
X664964Y398000D02*
X642000D01*
Y375036D01*
X644909Y375322D01*
X649629Y376754D01*
X653979Y379079D01*
X657792Y382208D01*
X660921Y386021D01*
X663246Y390371D01*
X664678Y395091D01*
X664964Y398000D01*
D02*
G37*
G36*
X638000D02*
X615036D01*
X615322Y395091D01*
X616754Y390371D01*
X619079Y386021D01*
X622208Y382208D01*
X626021Y379079D01*
X630371Y376754D01*
X635091Y375322D01*
X638000Y375036D01*
Y398000D01*
D02*
G37*
G36*
X162964D02*
X140000D01*
Y375036D01*
X142909Y375322D01*
X147629Y376754D01*
X151979Y379079D01*
X155792Y382208D01*
X158921Y386021D01*
X161246Y390371D01*
X162678Y395091D01*
X162964Y398000D01*
D02*
G37*
G36*
X136000D02*
X113036D01*
X113322Y395091D01*
X114754Y390371D01*
X117079Y386021D01*
X120208Y382208D01*
X124021Y379079D01*
X128371Y376754D01*
X133091Y375322D01*
X136000Y375036D01*
Y398000D01*
D02*
G37*
G36*
X306000Y382608D02*
X303854Y382181D01*
X302035Y380965D01*
X301599Y380314D01*
X292500D01*
X291232Y380061D01*
X290157Y379343D01*
X269958Y359144D01*
X268852Y359253D01*
X262541Y365563D01*
X261466Y366281D01*
X260198Y366534D01*
X243449D01*
Y370220D01*
X230448D01*
Y356220D01*
X243449D01*
Y359906D01*
X258826D01*
X260608Y358124D01*
X260590Y355321D01*
X260548Y355280D01*
X257778D01*
Y348490D01*
Y341700D01*
X258195D01*
Y340320D01*
X258447Y339052D01*
X259165Y337977D01*
X262621Y334520D01*
X263696Y333802D01*
X264965Y333550D01*
X280832D01*
X282100Y333802D01*
X283175Y334520D01*
X311410Y362756D01*
X313412D01*
X313847Y362104D01*
X315667Y360888D01*
X317813Y360461D01*
X319959Y360888D01*
X321778Y362104D01*
X322994Y363923D01*
X323420Y366069D01*
X322994Y368215D01*
X321778Y370034D01*
X319959Y371250D01*
X317813Y371677D01*
X315667Y371250D01*
X313847Y370034D01*
X313412Y369383D01*
X310037D01*
X308769Y369131D01*
X307694Y368412D01*
X279459Y340177D01*
X268413D01*
X268371Y340240D01*
X269440Y342240D01*
X275008D01*
Y354740D01*
X275008Y354740D01*
X275008D01*
X276301Y356115D01*
X293873Y373686D01*
X301599D01*
X302035Y373035D01*
X303854Y371819D01*
X306000Y371392D01*
X308146Y371819D01*
X309965Y373035D01*
X311181Y374854D01*
X311608Y377000D01*
X311181Y379146D01*
X309965Y380965D01*
X308146Y382181D01*
X306000Y382608D01*
D02*
G37*
G36*
X464239Y373837D02*
Y368678D01*
X469399D01*
X469341Y369115D01*
X468682Y370706D01*
X467634Y372072D01*
X466268Y373121D01*
X464677Y373780D01*
X464239Y373837D01*
D02*
G37*
G36*
X448839D02*
Y368678D01*
X453999D01*
X453941Y369115D01*
X453282Y370706D01*
X452234Y372072D01*
X450868Y373121D01*
X449277Y373780D01*
X448839Y373837D01*
D02*
G37*
G36*
X433439D02*
Y368678D01*
X438599D01*
X438541Y369115D01*
X437882Y370706D01*
X436834Y372072D01*
X435467Y373121D01*
X433877Y373780D01*
X433439Y373837D01*
D02*
G37*
G36*
X446299D02*
X445862Y373780D01*
X444271Y373121D01*
X442905Y372072D01*
X441857Y370706D01*
X441198Y369115D01*
X441140Y368678D01*
X446299D01*
Y373837D01*
D02*
G37*
G36*
X461699D02*
X461262Y373780D01*
X459671Y373121D01*
X458305Y372072D01*
X457257Y370706D01*
X456598Y369115D01*
X456540Y368678D01*
X461699D01*
Y373837D01*
D02*
G37*
G36*
X430899D02*
X430462Y373780D01*
X428871Y373121D01*
X427505Y372072D01*
X426457Y370706D01*
X425798Y369115D01*
X425740Y368678D01*
X430899D01*
Y373837D01*
D02*
G37*
G36*
X469399Y366138D02*
X464239D01*
Y360979D01*
X464677Y361036D01*
X466268Y361695D01*
X467634Y362744D01*
X468682Y364110D01*
X469341Y365701D01*
X469399Y366138D01*
D02*
G37*
G36*
X453999D02*
X448839D01*
Y360979D01*
X449277Y361036D01*
X450868Y361695D01*
X452234Y362744D01*
X453282Y364110D01*
X453941Y365701D01*
X453999Y366138D01*
D02*
G37*
G36*
X438599D02*
X433439D01*
Y360979D01*
X433877Y361036D01*
X435467Y361695D01*
X436834Y362744D01*
X437882Y364110D01*
X438541Y365701D01*
X438599Y366138D01*
D02*
G37*
G36*
X461699D02*
X456540D01*
X456598Y365701D01*
X457257Y364110D01*
X458305Y362744D01*
X459671Y361695D01*
X461262Y361036D01*
X461699Y360979D01*
Y366138D01*
D02*
G37*
G36*
X446299D02*
X441140D01*
X441198Y365701D01*
X441857Y364110D01*
X442905Y362744D01*
X444271Y361695D01*
X445862Y361036D01*
X446299Y360979D01*
Y366138D01*
D02*
G37*
G36*
X430899D02*
X425740D01*
X425798Y365701D01*
X426457Y364110D01*
X427505Y362744D01*
X428871Y361695D01*
X430462Y361036D01*
X430899Y360979D01*
Y366138D01*
D02*
G37*
G36*
X464239Y355837D02*
Y350678D01*
X469399D01*
X469341Y351115D01*
X468682Y352706D01*
X467634Y354072D01*
X466268Y355121D01*
X464677Y355780D01*
X464239Y355837D01*
D02*
G37*
G36*
X448839D02*
Y350678D01*
X453999D01*
X453941Y351115D01*
X453282Y352706D01*
X452234Y354072D01*
X450868Y355121D01*
X449277Y355780D01*
X448839Y355837D01*
D02*
G37*
G36*
X433439D02*
Y350678D01*
X438599D01*
X438541Y351115D01*
X437882Y352706D01*
X436834Y354072D01*
X435467Y355121D01*
X433877Y355780D01*
X433439Y355837D01*
D02*
G37*
G36*
X446299D02*
X445862Y355780D01*
X444271Y355121D01*
X442905Y354072D01*
X441857Y352706D01*
X441198Y351115D01*
X441140Y350678D01*
X446299D01*
Y355837D01*
D02*
G37*
G36*
X461699D02*
X461262Y355780D01*
X459671Y355121D01*
X458305Y354072D01*
X457257Y352706D01*
X456598Y351115D01*
X456540Y350678D01*
X461699D01*
Y355837D01*
D02*
G37*
G36*
X430899D02*
X430462Y355780D01*
X428871Y355121D01*
X427505Y354072D01*
X426457Y352706D01*
X425798Y351115D01*
X425740Y350678D01*
X430899D01*
Y355837D01*
D02*
G37*
G36*
X255238Y355280D02*
X252468D01*
Y349760D01*
X255238D01*
Y355280D01*
D02*
G37*
G36*
X345653Y357684D02*
X343507Y357257D01*
X341688Y356042D01*
X341253Y355390D01*
X312555D01*
X311287Y355138D01*
X310212Y354420D01*
X286658Y330866D01*
X263901D01*
X262632Y330614D01*
X261557Y329896D01*
X260528Y328866D01*
X259565Y328079D01*
X257657Y328636D01*
X257599Y328679D01*
X255422Y330856D01*
X254356Y331569D01*
X253097Y331819D01*
X253097Y331819D01*
X242636D01*
Y335531D01*
X229636D01*
Y321531D01*
X242636D01*
Y325243D01*
X251735D01*
X252940Y324038D01*
Y316990D01*
X253008Y316645D01*
Y310740D01*
X263220D01*
Y305636D01*
X256918Y299334D01*
X242637D01*
Y303046D01*
X229637D01*
Y289046D01*
X242637D01*
Y292757D01*
X258280D01*
X258280Y292757D01*
X259538Y293008D01*
X260605Y293721D01*
X268834Y301949D01*
X268834Y301949D01*
X269546Y303016D01*
X269797Y304274D01*
X269797Y304274D01*
Y310740D01*
X275008D01*
Y313775D01*
X277692D01*
Y310593D01*
X280874D01*
Y308238D01*
X280393Y307917D01*
X279177Y306097D01*
X278750Y303951D01*
X279177Y301805D01*
X280393Y299986D01*
X282212Y298771D01*
X284358Y298344D01*
X286504Y298771D01*
X288324Y299986D01*
X289539Y301805D01*
X289966Y303951D01*
X289539Y306097D01*
X288324Y307917D01*
X288703Y309872D01*
X289425Y310593D01*
X290376D01*
X292153Y310054D01*
X292969Y310054D01*
X298173D01*
Y317344D01*
Y324633D01*
X292626Y324634D01*
X291547Y326383D01*
X313927Y348763D01*
X341253D01*
X341688Y348111D01*
X343507Y346896D01*
X345653Y346469D01*
X347799Y346896D01*
X349619Y348111D01*
X350834Y349930D01*
X351261Y352076D01*
X350834Y354222D01*
X349619Y356042D01*
X347799Y357257D01*
X345653Y357684D01*
D02*
G37*
G36*
X469399Y348138D02*
X464239D01*
Y342979D01*
X464677Y343036D01*
X466268Y343695D01*
X467634Y344744D01*
X468682Y346110D01*
X469341Y347701D01*
X469399Y348138D01*
D02*
G37*
G36*
X453999D02*
X448839D01*
Y342979D01*
X449277Y343036D01*
X450868Y343695D01*
X452234Y344744D01*
X453282Y346110D01*
X453941Y347701D01*
X453999Y348138D01*
D02*
G37*
G36*
X438599D02*
X433439D01*
Y342979D01*
X433877Y343036D01*
X435467Y343695D01*
X436834Y344744D01*
X437882Y346110D01*
X438541Y347701D01*
X438599Y348138D01*
D02*
G37*
G36*
X461699D02*
X456540D01*
X456598Y347701D01*
X457257Y346110D01*
X458305Y344744D01*
X459671Y343695D01*
X461262Y343036D01*
X461699Y342979D01*
Y348138D01*
D02*
G37*
G36*
X446299D02*
X441140D01*
X441198Y347701D01*
X441857Y346110D01*
X442905Y344744D01*
X444271Y343695D01*
X445862Y343036D01*
X446299Y342979D01*
Y348138D01*
D02*
G37*
G36*
X430899D02*
X425740D01*
X425798Y347701D01*
X426457Y346110D01*
X427505Y344744D01*
X428871Y343695D01*
X430462Y343036D01*
X430899Y342979D01*
Y348138D01*
D02*
G37*
G36*
X255238Y347220D02*
X252468D01*
Y341700D01*
X255238D01*
Y347220D01*
D02*
G37*
G36*
X464239Y337837D02*
Y332678D01*
X469399D01*
X469341Y333115D01*
X468682Y334706D01*
X467634Y336072D01*
X466268Y337121D01*
X464677Y337780D01*
X464239Y337837D01*
D02*
G37*
G36*
X448839D02*
Y332678D01*
X453999D01*
X453941Y333115D01*
X453282Y334706D01*
X452234Y336072D01*
X450868Y337121D01*
X449277Y337780D01*
X448839Y337837D01*
D02*
G37*
G36*
X433439D02*
Y332678D01*
X438599D01*
X438541Y333115D01*
X437882Y334706D01*
X436834Y336072D01*
X435467Y337121D01*
X433877Y337780D01*
X433439Y337837D01*
D02*
G37*
G36*
X446299D02*
X445862Y337780D01*
X444271Y337121D01*
X442905Y336072D01*
X441857Y334706D01*
X441198Y333115D01*
X441140Y332678D01*
X446299D01*
Y337837D01*
D02*
G37*
G36*
X461699D02*
X461262Y337780D01*
X459671Y337121D01*
X458305Y336072D01*
X457257Y334706D01*
X456598Y333115D01*
X456540Y332678D01*
X461699D01*
Y337837D01*
D02*
G37*
G36*
X430899D02*
X430462Y337780D01*
X428871Y337121D01*
X427505Y336072D01*
X426457Y334706D01*
X425798Y333115D01*
X425740Y332678D01*
X430899D01*
Y337837D01*
D02*
G37*
G36*
X469399Y330138D02*
X464239D01*
Y324979D01*
X464677Y325036D01*
X466268Y325695D01*
X467634Y326744D01*
X468682Y328110D01*
X469341Y329701D01*
X469399Y330138D01*
D02*
G37*
G36*
X453999D02*
X448839D01*
Y324979D01*
X449277Y325036D01*
X450868Y325695D01*
X452234Y326744D01*
X453282Y328110D01*
X453941Y329701D01*
X453999Y330138D01*
D02*
G37*
G36*
X438599D02*
X433439D01*
Y324979D01*
X433877Y325036D01*
X435467Y325695D01*
X436834Y326744D01*
X437882Y328110D01*
X438541Y329701D01*
X438599Y330138D01*
D02*
G37*
G36*
X461699D02*
X456540D01*
X456598Y329701D01*
X457257Y328110D01*
X458305Y326744D01*
X459671Y325695D01*
X461262Y325036D01*
X461699Y324979D01*
Y330138D01*
D02*
G37*
G36*
X446299D02*
X441140D01*
X441198Y329701D01*
X441857Y328110D01*
X442905Y326744D01*
X444271Y325695D01*
X445862Y325036D01*
X446299Y324979D01*
Y330138D01*
D02*
G37*
G36*
X430899D02*
X425740D01*
X425798Y329701D01*
X426457Y328110D01*
X427505Y326744D01*
X428871Y325695D01*
X430462Y325036D01*
X430899Y324979D01*
Y330138D01*
D02*
G37*
G36*
X300713Y324633D02*
Y318613D01*
X306733D01*
Y324633D01*
X300713D01*
D02*
G37*
G36*
X551028Y323400D02*
Y317380D01*
X557048D01*
Y323400D01*
X551028D01*
D02*
G37*
G36*
X306733Y316073D02*
X300713D01*
Y310054D01*
X306733D01*
Y316073D01*
D02*
G37*
G36*
X75270Y292229D02*
Y281270D01*
X86229D01*
X85974Y283208D01*
X84735Y286198D01*
X82765Y288765D01*
X80198Y290735D01*
X77208Y291974D01*
X75270Y292229D01*
D02*
G37*
G36*
X72730D02*
X70792Y291974D01*
X67802Y290735D01*
X65235Y288765D01*
X63265Y286198D01*
X62026Y283208D01*
X61771Y281270D01*
X72730D01*
Y292229D01*
D02*
G37*
G36*
X86229Y278730D02*
X75270D01*
Y267771D01*
X77208Y268026D01*
X80198Y269265D01*
X82765Y271235D01*
X84735Y273802D01*
X85974Y276792D01*
X86229Y278730D01*
D02*
G37*
G36*
X72730D02*
X61771D01*
X62026Y276792D01*
X63265Y273802D01*
X65235Y271235D01*
X67802Y269265D01*
X70792Y268026D01*
X72730Y267771D01*
Y278730D01*
D02*
G37*
G36*
X50270Y275161D02*
Y266270D01*
X59161D01*
X58976Y267673D01*
X57945Y270164D01*
X56303Y272303D01*
X54164Y273945D01*
X51673Y274976D01*
X50270Y275161D01*
D02*
G37*
G36*
X47730D02*
X46327Y274976D01*
X43836Y273945D01*
X41697Y272303D01*
X40055Y270164D01*
X39024Y267673D01*
X38839Y266270D01*
X47730D01*
Y275161D01*
D02*
G37*
G36*
X179298Y275950D02*
X170028D01*
Y258680D01*
X179298D01*
Y275950D01*
D02*
G37*
G36*
X167488D02*
X158218D01*
Y258680D01*
X167488D01*
Y275950D01*
D02*
G37*
G36*
X556791Y260952D02*
X550771D01*
Y254932D01*
X556791D01*
Y260952D01*
D02*
G37*
G36*
X47730Y263730D02*
X38839D01*
X39024Y262327D01*
X40055Y259836D01*
X41697Y257697D01*
X43836Y256055D01*
X46327Y255024D01*
X47730Y254839D01*
Y263730D01*
D02*
G37*
G36*
X59161D02*
X50270D01*
Y254839D01*
X51673Y255024D01*
X54164Y256055D01*
X56303Y257697D01*
X57945Y259836D01*
X58976Y262327D01*
X59161Y263730D01*
D02*
G37*
G36*
X483880Y266711D02*
X478860D01*
Y258221D01*
Y249731D01*
X483880D01*
Y250271D01*
X495340D01*
Y266171D01*
X483880D01*
Y266711D01*
D02*
G37*
G36*
X779730Y265208D02*
X777618Y265000D01*
X774367Y264014D01*
X771370Y262412D01*
X768743Y260257D01*
X766588Y257630D01*
X764986Y254633D01*
X764000Y251382D01*
X763792Y249270D01*
X779730D01*
Y265208D01*
D02*
G37*
G36*
X731270D02*
Y249270D01*
X747208D01*
X747000Y251382D01*
X746014Y254633D01*
X744412Y257630D01*
X742257Y260257D01*
X739630Y262412D01*
X736633Y264014D01*
X733382Y265000D01*
X731270Y265208D01*
D02*
G37*
G36*
X728730D02*
X726618Y265000D01*
X723367Y264014D01*
X720370Y262412D01*
X717743Y260257D01*
X715588Y257630D01*
X713986Y254633D01*
X713000Y251382D01*
X712792Y249270D01*
X728730D01*
Y265208D01*
D02*
G37*
G36*
X106750Y254250D02*
X93250D01*
Y251077D01*
X62742D01*
X61474Y250825D01*
X60399Y250106D01*
X46391Y236099D01*
X45673Y235024D01*
X45421Y233756D01*
Y228602D01*
X45108Y228473D01*
X43082Y226918D01*
X41527Y224892D01*
X40550Y222532D01*
X40216Y220000D01*
X40550Y217468D01*
X41527Y215108D01*
X43082Y213082D01*
X45108Y211527D01*
X47468Y210550D01*
X50000Y210216D01*
X52532Y210550D01*
X54892Y211527D01*
X56918Y213082D01*
X58473Y215108D01*
X59450Y217468D01*
X59784Y220000D01*
X59450Y222532D01*
X58473Y224892D01*
X56918Y226918D01*
X54892Y228473D01*
X52532Y229450D01*
X52048Y229514D01*
Y232383D01*
X64114Y244450D01*
X93250D01*
Y241566D01*
X92710Y239790D01*
X92710Y238974D01*
Y233770D01*
X100000D01*
X107290D01*
Y238974D01*
X107290Y239790D01*
X106750Y241566D01*
Y244450D01*
X110204D01*
X110640Y243798D01*
X112459Y242582D01*
X114605Y242155D01*
X116751Y242582D01*
X118570Y243798D01*
X119786Y245617D01*
X120213Y247763D01*
X119786Y249909D01*
X118570Y251728D01*
X116751Y252944D01*
X114605Y253371D01*
X112459Y252944D01*
X110640Y251728D01*
X110204Y251077D01*
X106750D01*
Y254250D01*
D02*
G37*
G36*
X696540Y244768D02*
X690270D01*
Y238998D01*
X696540D01*
Y244768D01*
D02*
G37*
G36*
X687730D02*
X681460D01*
Y238998D01*
X687730D01*
Y244768D01*
D02*
G37*
G36*
X179298Y256140D02*
X170028D01*
Y238870D01*
X179298D01*
Y256140D01*
D02*
G37*
G36*
X167488D02*
X158218D01*
Y238870D01*
X167488D01*
Y256140D01*
D02*
G37*
G36*
X662898Y239100D02*
X652628D01*
Y233830D01*
X662898D01*
Y239100D01*
D02*
G37*
G36*
X650088D02*
X639818D01*
Y233830D01*
X650088D01*
Y239100D01*
D02*
G37*
G36*
X546058D02*
X535788D01*
Y233830D01*
X546058D01*
Y239100D01*
D02*
G37*
G36*
X533248D02*
X522978D01*
Y233830D01*
X533248D01*
Y239100D01*
D02*
G37*
G36*
X728730Y246730D02*
X712792D01*
X713000Y244618D01*
X713986Y241367D01*
X715588Y238370D01*
X717743Y235743D01*
X720370Y233588D01*
X723367Y231986D01*
X726618Y231000D01*
X728730Y230792D01*
Y246730D01*
D02*
G37*
G36*
X747208D02*
X731270D01*
Y230792D01*
X733382Y231000D01*
X736633Y231986D01*
X739630Y233588D01*
X742257Y235743D01*
X744412Y238370D01*
X746014Y241367D01*
X747000Y244618D01*
X747208Y246730D01*
D02*
G37*
G36*
X779730Y246730D02*
X763792D01*
X764000Y244618D01*
X764986Y241367D01*
X766588Y238370D01*
X768743Y235743D01*
X771370Y233588D01*
X774367Y231986D01*
X777618Y231000D01*
X779730Y230792D01*
Y246730D01*
D02*
G37*
G36*
X696540Y236458D02*
X690270D01*
Y230688D01*
X696540D01*
Y236458D01*
D02*
G37*
G36*
X687730D02*
X681460D01*
Y230688D01*
X687730D01*
Y236458D01*
D02*
G37*
G36*
X755000Y237082D02*
X751667Y236754D01*
X748463Y235782D01*
X745510Y234203D01*
X742921Y232079D01*
X740797Y229490D01*
X739828Y227677D01*
X712800D01*
Y228377D01*
X698800D01*
Y227677D01*
X696000D01*
Y228228D01*
X682000D01*
Y227677D01*
X662898D01*
Y231290D01*
X639818D01*
Y226020D01*
X640358D01*
Y217100D01*
X639818D01*
Y211830D01*
X662898D01*
Y215443D01*
X682000D01*
Y215228D01*
X696000D01*
Y215443D01*
X698800D01*
Y215377D01*
X712800D01*
Y215443D01*
X738617D01*
X739218Y213463D01*
X740797Y210510D01*
X741972Y209077D01*
X740551Y207656D01*
X739630Y208412D01*
X736633Y210014D01*
X733382Y211000D01*
X731270Y211208D01*
Y195270D01*
X747208D01*
X747000Y197382D01*
X746014Y200633D01*
X744412Y203630D01*
X743206Y205100D01*
X744627Y206521D01*
X745510Y205797D01*
X748463Y204218D01*
X751667Y203246D01*
X755000Y202918D01*
X758333Y203246D01*
X761537Y204218D01*
X764490Y205797D01*
X767079Y207921D01*
X769203Y210510D01*
X770782Y213463D01*
X771754Y216667D01*
X772082Y220000D01*
X771754Y223333D01*
X770782Y226537D01*
X769203Y229490D01*
X767079Y232079D01*
X764490Y234203D01*
X761537Y235782D01*
X758333Y236754D01*
X755000Y237082D01*
D02*
G37*
G36*
X107290Y231230D02*
X101270D01*
Y225210D01*
X107290D01*
Y231230D01*
D02*
G37*
G36*
X98730D02*
X92710D01*
Y225210D01*
X98730D01*
Y231230D01*
D02*
G37*
G36*
X75270Y222229D02*
Y211270D01*
X86229D01*
X85974Y213208D01*
X84735Y216198D01*
X82765Y218765D01*
X80198Y220735D01*
X77208Y221974D01*
X75270Y222229D01*
D02*
G37*
G36*
X72730Y222229D02*
X70792Y221974D01*
X67802Y220735D01*
X65235Y218765D01*
X63265Y216198D01*
X62026Y213208D01*
X61771Y211270D01*
X72730D01*
Y222229D01*
D02*
G37*
G36*
X86229Y208730D02*
X75270D01*
Y197771D01*
X77208Y198026D01*
X80198Y199265D01*
X82765Y201235D01*
X84735Y203802D01*
X85974Y206792D01*
X86229Y208730D01*
D02*
G37*
G36*
X72730D02*
X61771D01*
X62026Y206792D01*
X63265Y203802D01*
X65235Y201235D01*
X67802Y199265D01*
X70792Y198026D01*
X72730Y197771D01*
Y208730D01*
D02*
G37*
G36*
X444018Y201480D02*
X437998D01*
Y195460D01*
X444018D01*
Y201480D01*
D02*
G37*
G36*
X394488D02*
X388468D01*
Y195460D01*
X394488D01*
Y201480D01*
D02*
G37*
G36*
X435458D02*
X429438D01*
Y195460D01*
X435458D01*
Y201480D01*
D02*
G37*
G36*
X385928D02*
X379908D01*
Y195460D01*
X385928D01*
Y201480D01*
D02*
G37*
G36*
X779730Y211208D02*
X777618Y211000D01*
X774367Y210014D01*
X771370Y208412D01*
X768743Y206257D01*
X766588Y203630D01*
X764986Y200633D01*
X764000Y197382D01*
X763792Y195270D01*
X779730D01*
Y211208D01*
D02*
G37*
G36*
X546058Y231290D02*
X522978D01*
Y226020D01*
X523518D01*
Y215560D01*
Y204560D01*
Y193560D01*
Y182560D01*
X545518D01*
Y193560D01*
Y204560D01*
Y215560D01*
Y226020D01*
X546058D01*
Y231290D01*
D02*
G37*
G36*
X191168Y187630D02*
X185148D01*
Y181610D01*
X191168D01*
Y187630D01*
D02*
G37*
G36*
X728730Y192730D02*
X712792D01*
X713000Y190618D01*
X713986Y187367D01*
X715588Y184370D01*
X717743Y181743D01*
X720370Y179588D01*
X723367Y177986D01*
X726618Y177000D01*
X728730Y176792D01*
Y192730D01*
D02*
G37*
G36*
X779730Y192730D02*
X763792D01*
X764000Y190618D01*
X764986Y187367D01*
X766588Y184370D01*
X768743Y181743D01*
X771370Y179588D01*
X774367Y177986D01*
X777618Y177000D01*
X779730Y176792D01*
Y192730D01*
D02*
G37*
G36*
X747208Y192730D02*
X731270D01*
Y176792D01*
X733382Y177000D01*
X736633Y177986D01*
X739630Y179588D01*
X742257Y181743D01*
X744412Y184370D01*
X746014Y187367D01*
X747000Y190618D01*
X747208Y192730D01*
D02*
G37*
G36*
X123959Y193170D02*
X111959D01*
Y190287D01*
X68448D01*
X66107Y189822D01*
X64122Y188496D01*
X39972Y164346D01*
X38646Y162361D01*
X38181Y160020D01*
Y123190D01*
X38646Y120849D01*
X39972Y118864D01*
X54392Y104444D01*
X56377Y103118D01*
X58718Y102652D01*
X68250D01*
Y95250D01*
X97750D01*
Y124750D01*
X68250D01*
Y114888D01*
X61252D01*
X50416Y125724D01*
Y157486D01*
X70982Y178052D01*
X111959D01*
Y175170D01*
X123959D01*
Y183579D01*
X124076Y184170D01*
X123959Y184761D01*
Y193170D01*
D02*
G37*
G36*
X149359D02*
X137359D01*
Y184761D01*
X137241Y184170D01*
Y175254D01*
X128124Y166138D01*
X96444D01*
X95323Y168234D01*
X93480Y170480D01*
X91234Y172323D01*
X88672Y173693D01*
X85892Y174537D01*
X83000Y174821D01*
X80108Y174537D01*
X77328Y173693D01*
X74766Y172323D01*
X72520Y170480D01*
X70676Y168234D01*
X69307Y165672D01*
X68463Y162892D01*
X68179Y160000D01*
X68463Y157108D01*
X69307Y154328D01*
X70676Y151766D01*
X72520Y149520D01*
X74766Y147676D01*
X77328Y146307D01*
X80108Y145463D01*
X83000Y145179D01*
X85892Y145463D01*
X88672Y146307D01*
X91234Y147676D01*
X93480Y149520D01*
X95323Y151766D01*
X96466Y153903D01*
X130658D01*
X132999Y154368D01*
X132999Y154368D01*
X132999Y154368D01*
X133797Y154901D01*
X134984Y155694D01*
X147684Y168394D01*
X149010Y170379D01*
X149010Y170379D01*
X149265Y171661D01*
X149476Y172720D01*
Y184170D01*
X149359Y184761D01*
Y193170D01*
D02*
G37*
G36*
X668276Y168859D02*
X662506D01*
Y166499D01*
X662358Y164560D01*
X660506Y164560D01*
X640358D01*
X640358Y164560D01*
X638358Y163845D01*
X636672Y164180D01*
X634526Y163753D01*
X632707Y162538D01*
X631491Y160718D01*
X631064Y158573D01*
X631491Y156426D01*
X632707Y154607D01*
X633253Y154242D01*
X633253Y154241D01*
X633116Y151929D01*
X632153Y151285D01*
X630937Y149466D01*
X630510Y147320D01*
X630937Y145174D01*
X632153Y143355D01*
X633032Y142768D01*
Y140442D01*
X632153Y139855D01*
X630937Y138036D01*
X630510Y135890D01*
X630937Y133744D01*
X632072Y132046D01*
X632325Y131471D01*
Y130149D01*
X632072Y129574D01*
X630937Y127876D01*
X630510Y125730D01*
X630937Y123584D01*
X632153Y121765D01*
X633032Y121178D01*
Y118852D01*
X632153Y118265D01*
X630937Y116446D01*
X630510Y114300D01*
X630937Y112154D01*
X632153Y110335D01*
X632455Y110133D01*
Y107727D01*
X632153Y107525D01*
X630937Y105706D01*
X630510Y103560D01*
X630937Y101414D01*
X632153Y99595D01*
X632538Y99338D01*
Y96932D01*
X632153Y96675D01*
X630937Y94856D01*
X630510Y92710D01*
X630937Y90564D01*
X632153Y88745D01*
X633972Y87529D01*
X636118Y87102D01*
X638264Y87529D01*
X638358Y87592D01*
X640358Y86560D01*
Y86560D01*
X662358D01*
Y97560D01*
Y108560D01*
Y119560D01*
Y130560D01*
Y141560D01*
Y151840D01*
X662417Y152608D01*
X663854Y153778D01*
X668276D01*
Y161318D01*
Y168859D01*
D02*
G37*
G36*
X191168Y165100D02*
X185148D01*
Y159080D01*
X191168D01*
Y165100D01*
D02*
G37*
G36*
X233902Y158273D02*
X228132D01*
Y152003D01*
X233902D01*
Y158273D01*
D02*
G37*
G36*
X225592D02*
X219822D01*
Y152003D01*
X225592D01*
Y158273D01*
D02*
G37*
G36*
X233902Y149463D02*
X228132D01*
Y143193D01*
X233902D01*
Y149463D01*
D02*
G37*
G36*
X225592D02*
X219822D01*
Y143193D01*
X225592D01*
Y149463D01*
D02*
G37*
G36*
X226849Y140738D02*
Y134719D01*
X232869D01*
Y140738D01*
X226849D01*
D02*
G37*
G36*
X385928Y145900D02*
X381658D01*
Y145360D01*
X372698D01*
Y129360D01*
X372698D01*
X372981Y128677D01*
X347714Y103410D01*
X347051Y102418D01*
X346818Y101247D01*
X346818Y101247D01*
Y72237D01*
X346818Y72237D01*
X347051Y71066D01*
X347714Y70074D01*
X367645Y50143D01*
X367645Y50143D01*
X368637Y49480D01*
X369808Y49247D01*
X369808Y49247D01*
X399784D01*
X400285Y47247D01*
X398952Y46534D01*
X395939Y44061D01*
X393466Y41048D01*
X391628Y37610D01*
X390496Y33879D01*
X390311Y32000D01*
X410000D01*
X429689D01*
X429504Y33879D01*
X428372Y37610D01*
X426534Y41048D01*
X424061Y44061D01*
X421048Y46534D01*
X419715Y47247D01*
X420216Y49247D01*
X427823D01*
X427823Y49247D01*
X428993Y49480D01*
X429986Y50143D01*
X440579Y60737D01*
X442324Y60014D01*
X445000Y59662D01*
X447676Y60014D01*
X450169Y61047D01*
X452310Y62690D01*
X453953Y64831D01*
X454986Y67324D01*
X455338Y70000D01*
X454986Y72676D01*
X453953Y75169D01*
X452310Y77310D01*
X450169Y78953D01*
X447676Y79986D01*
X445000Y80338D01*
X442324Y79986D01*
X439831Y78953D01*
X437690Y77310D01*
X436047Y75169D01*
X433953D01*
X432310Y77310D01*
X430169Y78953D01*
X427676Y79986D01*
X425000Y80338D01*
X422324Y79986D01*
X419831Y78953D01*
X417690Y77310D01*
X416047Y75169D01*
X415014Y72676D01*
X414662Y70000D01*
X415014Y67324D01*
X416047Y64831D01*
X417690Y62690D01*
X419831Y61047D01*
X422324Y60014D01*
X425000Y59662D01*
X427676Y60014D01*
X428872Y60510D01*
X430005Y58814D01*
X426556Y55365D01*
X371075D01*
X352936Y73504D01*
Y99980D01*
X379861Y126905D01*
X379861Y126905D01*
X380225Y127451D01*
X381658Y128820D01*
X382592Y128820D01*
X385928D01*
Y137360D01*
Y145900D01*
D02*
G37*
G36*
X308033Y130627D02*
Y124607D01*
X314053D01*
Y130627D01*
X308033D01*
D02*
G37*
G36*
X696549Y122735D02*
X690529D01*
Y116715D01*
X696549D01*
Y122735D01*
D02*
G37*
G36*
X392738Y145900D02*
X388468D01*
Y137360D01*
Y128820D01*
X392738D01*
X393639Y127193D01*
Y125318D01*
X383656Y115335D01*
X372897D01*
X372897Y115335D01*
X371726Y115102D01*
X370734Y114439D01*
X370734Y114439D01*
X360327Y104033D01*
X359664Y103041D01*
X359432Y101870D01*
X359432Y101870D01*
Y83329D01*
X359432Y83329D01*
X359664Y82158D01*
X360327Y81166D01*
X369875Y71619D01*
X369662Y70000D01*
X370014Y67324D01*
X371047Y64831D01*
X372690Y62690D01*
X374831Y61047D01*
X377324Y60014D01*
X380000Y59662D01*
X382676Y60014D01*
X385169Y61047D01*
X387310Y62690D01*
X388527Y64276D01*
X389582Y64421D01*
X390316Y64374D01*
X390854Y64194D01*
X392304Y62305D01*
X394558Y60575D01*
X397183Y59488D01*
X398730Y59284D01*
Y70000D01*
Y80716D01*
X397183Y80512D01*
X394558Y79425D01*
X392304Y77695D01*
X390854Y75806D01*
X390316Y75626D01*
X389582Y75579D01*
X388527Y75724D01*
X387310Y77310D01*
X385169Y78953D01*
X382676Y79986D01*
X380000Y80338D01*
X377324Y79986D01*
X374831Y78953D01*
X372772Y77373D01*
X365549Y84596D01*
Y100603D01*
X374164Y109218D01*
X384923D01*
X384923Y109218D01*
X386094Y109451D01*
X387086Y110113D01*
X398861Y121888D01*
X398861Y121888D01*
X399524Y122880D01*
X399757Y124051D01*
X399757Y124051D01*
Y129360D01*
X401698D01*
Y145360D01*
X392738D01*
Y145900D01*
D02*
G37*
G36*
X313934Y106827D02*
X307913D01*
Y100807D01*
X313934D01*
Y106827D01*
D02*
G37*
G36*
X140000Y112964D02*
Y90000D01*
X162964D01*
X162678Y92909D01*
X161246Y97629D01*
X158921Y101979D01*
X155792Y105792D01*
X151979Y108921D01*
X147629Y111246D01*
X142909Y112678D01*
X140000Y112964D01*
D02*
G37*
G36*
X136000D02*
X133091Y112678D01*
X128371Y111246D01*
X124021Y108921D01*
X120208Y105792D01*
X117079Y101979D01*
X114754Y97629D01*
X113322Y92909D01*
X113036Y90000D01*
X136000D01*
Y112964D01*
D02*
G37*
G36*
X281858Y131700D02*
X258858D01*
Y115700D01*
X281858D01*
Y116068D01*
X283858Y116762D01*
X284931Y115401D01*
X284893Y114847D01*
X284893D01*
X284893Y114637D01*
Y101347D01*
X285528D01*
Y98650D01*
X277528D01*
Y86268D01*
X247528D01*
Y87150D01*
X219528D01*
Y73150D01*
X247528D01*
Y74033D01*
X277528D01*
Y61650D01*
X305528D01*
Y98650D01*
X299673D01*
X299628Y98807D01*
X299757Y99285D01*
X301136Y100807D01*
X305373D01*
Y108097D01*
X306644D01*
Y109367D01*
X313934D01*
Y114097D01*
X314053Y116047D01*
X314053Y117338D01*
Y122067D01*
X306763D01*
Y123337D01*
X305493D01*
Y130627D01*
X300289D01*
X299473Y130627D01*
X297697Y130087D01*
X285013D01*
Y129636D01*
X281858D01*
Y131700D01*
D02*
G37*
G36*
X546058Y91290D02*
X535788D01*
Y86020D01*
X546058D01*
Y91290D01*
D02*
G37*
G36*
X497892Y87458D02*
X491872D01*
Y81438D01*
X497892D01*
Y87458D01*
D02*
G37*
G36*
X401270Y80716D02*
Y71270D01*
X410716D01*
X410512Y72817D01*
X409425Y75442D01*
X407696Y77695D01*
X405442Y79425D01*
X402817Y80512D01*
X401270Y80716D01*
D02*
G37*
G36*
X162964Y86000D02*
X140000D01*
Y63036D01*
X142909Y63322D01*
X147629Y64754D01*
X151979Y67079D01*
X155792Y70208D01*
X158921Y74021D01*
X161246Y78371D01*
X162678Y83091D01*
X162964Y86000D01*
D02*
G37*
G36*
X136000D02*
X113036D01*
X113322Y83091D01*
X114754Y78371D01*
X117079Y74021D01*
X120208Y70208D01*
X124021Y67079D01*
X128371Y64754D01*
X133091Y63322D01*
X136000Y63036D01*
Y86000D01*
D02*
G37*
G36*
X410716Y68730D02*
X401270D01*
Y59284D01*
X402817Y59488D01*
X405442Y60575D01*
X407696Y62305D01*
X409425Y64559D01*
X410512Y67183D01*
X410716Y68730D01*
D02*
G37*
G36*
X482000Y59689D02*
Y42000D01*
X499689D01*
X499504Y43879D01*
X498372Y47610D01*
X496534Y51048D01*
X494061Y54061D01*
X491048Y56534D01*
X487610Y58372D01*
X483880Y59504D01*
X482000Y59689D01*
D02*
G37*
G36*
X344000D02*
Y42000D01*
X361689D01*
X361504Y43879D01*
X360372Y47610D01*
X358534Y51048D01*
X356061Y54061D01*
X353048Y56534D01*
X349610Y58372D01*
X345880Y59504D01*
X344000Y59689D01*
D02*
G37*
G36*
X340000D02*
X338120Y59504D01*
X334390Y58372D01*
X330952Y56534D01*
X327939Y54061D01*
X325466Y51048D01*
X323628Y47610D01*
X322496Y43879D01*
X322311Y42000D01*
X340000D01*
Y59689D01*
D02*
G37*
G36*
X478000D02*
X476120Y59504D01*
X472390Y58372D01*
X468952Y56534D01*
X465939Y54061D01*
X463466Y51048D01*
X461628Y47610D01*
X460496Y43879D01*
X460311Y42000D01*
X478000D01*
Y59689D01*
D02*
G37*
G36*
X214048Y40861D02*
X208027D01*
Y34841D01*
X214048D01*
Y40861D01*
D02*
G37*
G36*
X190247D02*
X184228D01*
Y34841D01*
X190247D01*
Y40861D01*
D02*
G37*
G36*
X499689Y38000D02*
X482000D01*
Y20311D01*
X483880Y20496D01*
X487610Y21628D01*
X491048Y23466D01*
X494061Y25939D01*
X496534Y28952D01*
X498372Y32390D01*
X499504Y36121D01*
X499689Y38000D01*
D02*
G37*
G36*
X361689D02*
X344000D01*
Y20311D01*
X345880Y20496D01*
X349610Y21628D01*
X353048Y23466D01*
X356061Y25939D01*
X358534Y28952D01*
X360372Y32390D01*
X361504Y36121D01*
X361689Y38000D01*
D02*
G37*
G36*
X340000D02*
X322311D01*
X322496Y36121D01*
X323628Y32390D01*
X325466Y28952D01*
X327939Y25939D01*
X330952Y23466D01*
X334390Y21628D01*
X338120Y20496D01*
X340000Y20311D01*
Y38000D01*
D02*
G37*
G36*
X478000D02*
X460311D01*
X460496Y36121D01*
X461628Y32390D01*
X463466Y28952D01*
X465939Y25939D01*
X468952Y23466D01*
X472390Y21628D01*
X476120Y20496D01*
X478000Y20311D01*
Y38000D01*
D02*
G37*
G36*
X665536Y49290D02*
X662581D01*
X659683Y48713D01*
X656953Y47583D01*
X654496Y45941D01*
X652407Y43852D01*
X650765Y41395D01*
X649635Y38665D01*
X649058Y35767D01*
Y32813D01*
X649635Y29915D01*
X650765Y27185D01*
X652407Y24728D01*
X654496Y22639D01*
X656953Y20997D01*
X659683Y19866D01*
X662581Y19290D01*
X665536D01*
X668434Y19866D01*
X671163Y20997D01*
X673620Y22639D01*
X675710Y24728D01*
X677351Y27185D01*
X678482Y29915D01*
X679058Y32813D01*
Y35767D01*
X678482Y38665D01*
X677351Y41395D01*
X675710Y43852D01*
X673620Y45941D01*
X671163Y47583D01*
X668434Y48713D01*
X665536Y49290D01*
D02*
G37*
G36*
X429689Y28000D02*
X412000D01*
Y10311D01*
X413880Y10496D01*
X417610Y11628D01*
X421048Y13466D01*
X424061Y15939D01*
X426534Y18952D01*
X428372Y22390D01*
X429504Y26121D01*
X429689Y28000D01*
D02*
G37*
G36*
X408000D02*
X390311D01*
X390496Y26121D01*
X391628Y22390D01*
X393466Y18952D01*
X395939Y15939D01*
X398952Y13466D01*
X402390Y11628D01*
X406120Y10496D01*
X408000Y10311D01*
Y28000D01*
D02*
G37*
%LPD*%
D10*
X412598Y115398D02*
Y139184D01*
X420544Y147130D02*
X444538D01*
X412598Y139184D02*
X420544Y147130D01*
X393200Y96000D02*
X412598Y115398D01*
X349877Y72237D02*
X369808Y52306D01*
X427823D02*
X444668Y69151D01*
X369808Y52306D02*
X427823D01*
X512694Y141524D02*
Y142887D01*
Y141524D02*
X514694Y139524D01*
X531555D02*
X534518Y136560D01*
X514694Y139524D02*
X531555D01*
X460924Y127485D02*
X494342D01*
X494799Y127028D01*
X495148Y143341D02*
Y154940D01*
X452750Y151130D02*
X460994Y142887D01*
X494694D01*
X362490Y83329D02*
X376668Y69151D01*
X362490Y101870D02*
X372897Y112276D01*
X362490Y83329D02*
Y101870D01*
X372897Y112276D02*
X384923D01*
X349877Y72237D02*
Y101247D01*
X377698Y129068D01*
Y137360D01*
X384923Y112276D02*
X396698Y124051D01*
Y137360D01*
X519040Y385451D02*
X555051D01*
X572618Y367884D01*
X552239Y409838D02*
X561301D01*
X582778Y388362D01*
Y259080D02*
Y388362D01*
X572618Y259080D02*
Y367884D01*
X380000Y96000D02*
X393200D01*
X354007Y162560D02*
X366878D01*
X353284Y161837D02*
X354007Y162560D01*
X366878D02*
X377498D01*
X686546Y161318D02*
X706130D01*
X706482Y161671D01*
X446228Y162360D02*
X446428Y162560D01*
X454508D01*
X414162Y151130D02*
X452750D01*
X402732Y162560D02*
X414162Y151130D01*
X444538Y147130D02*
X446228Y145440D01*
X494694Y142887D02*
X495148Y143341D01*
X493878Y126107D02*
X494799Y127028D01*
X493878Y115570D02*
Y126107D01*
X446228Y137360D02*
Y145440D01*
X396898Y162560D02*
X402732D01*
X427028D02*
X427228Y162360D01*
X412598Y162560D02*
X427028D01*
X396698Y162360D02*
X396898Y162560D01*
X377498D02*
X377698Y162360D01*
X427228Y111591D02*
X444668Y94151D01*
X427228Y111591D02*
Y137360D01*
X504543Y265382D02*
X504570Y265408D01*
X504543Y242178D02*
Y265382D01*
X504517Y242152D02*
X504543Y242178D01*
D11*
X261508Y340320D02*
X264965Y336864D01*
X280832D02*
X310037Y366069D01*
X264965Y336864D02*
X280832D01*
X261508Y325160D02*
X263901Y327552D01*
X288030D02*
X312555Y352076D01*
X263901Y327552D02*
X288030D01*
X73660Y247763D02*
X114605D01*
X62742D02*
X73660D01*
X48734Y233756D02*
X62742Y247763D01*
X519133Y264331D02*
X519647Y264845D01*
X519133Y247475D02*
X560481D01*
X519133D02*
Y264331D01*
X560481Y247475D02*
X619439Y188517D01*
X651199D01*
X519040Y265451D02*
X519647Y264845D01*
X48734Y221365D02*
Y233756D01*
X236949Y363220D02*
X260198D01*
X266509Y348490D02*
Y356910D01*
X260198Y363220D02*
X266509Y356910D01*
X312555Y352076D02*
X345653D01*
X310037Y366069D02*
X317813D01*
X271508Y348490D02*
Y356008D01*
X292500Y377000D02*
X306000D01*
X271508Y356008D02*
X292500Y377000D01*
X132000Y351000D02*
X144220Y363220D01*
X132000Y341500D02*
Y351000D01*
X144220Y363220D02*
X219948D01*
X504559Y290819D02*
X504570Y290808D01*
X492619Y290819D02*
X504559D01*
X492608Y290830D02*
X492619Y290819D01*
X261508Y316990D02*
Y325160D01*
X402427Y316219D02*
X402438Y316230D01*
X390580Y316219D02*
X402427D01*
X261508Y340320D02*
Y348490D01*
X390569Y316208D02*
X390580Y316219D01*
X519040Y361451D02*
X531978D01*
X519040Y349451D02*
X531978D01*
X519040Y337451D02*
X531978D01*
X504559Y316219D02*
X504570Y316208D01*
X491349Y316219D02*
X504559D01*
X491338Y316230D02*
X491349Y316219D01*
D18*
X504570Y469658D02*
D03*
Y457658D02*
D03*
Y445658D02*
D03*
Y433658D02*
D03*
X390569Y469658D02*
D03*
Y457658D02*
D03*
Y445658D02*
D03*
Y433658D02*
D03*
Y392408D02*
D03*
Y367008D02*
D03*
Y341608D02*
D03*
Y316208D02*
D03*
Y290808D02*
D03*
Y265408D02*
D03*
X504570D02*
D03*
Y341608D02*
D03*
Y367008D02*
D03*
Y392408D02*
D03*
X405569Y461908D02*
D03*
X417569D02*
D03*
X429569D02*
D03*
X441569D02*
D03*
X453569D02*
D03*
X465569D02*
D03*
X477569D02*
D03*
X489569D02*
D03*
Y272908D02*
D03*
X477569D02*
D03*
X465569D02*
D03*
X453569D02*
D03*
X441569D02*
D03*
X429569D02*
D03*
X417569D02*
D03*
X405569D02*
D03*
X454570Y439408D02*
D03*
X447569Y367408D02*
D03*
Y349408D02*
D03*
Y331408D02*
D03*
X440570Y439408D02*
D03*
X432169Y421408D02*
D03*
Y331408D02*
D03*
Y349408D02*
D03*
Y367408D02*
D03*
Y385408D02*
D03*
X462969Y421408D02*
D03*
Y331408D02*
D03*
Y349408D02*
D03*
Y367408D02*
D03*
Y385408D02*
D03*
X504570Y316208D02*
D03*
Y290808D02*
D03*
D19*
X552239Y409838D02*
D03*
X535239D02*
D03*
X535309Y424627D02*
D03*
X552309D02*
D03*
X226862Y150733D02*
D03*
X209862D02*
D03*
X219136Y296046D02*
D03*
X236137D02*
D03*
X219137Y328531D02*
D03*
X236136D02*
D03*
X219948Y363220D02*
D03*
X236949D02*
D03*
X686546Y161318D02*
D03*
X669546D02*
D03*
D20*
X519040Y265451D02*
D03*
Y277451D02*
D03*
Y289451D02*
D03*
Y301451D02*
D03*
Y313451D02*
D03*
Y325451D02*
D03*
Y337451D02*
D03*
Y349451D02*
D03*
Y361451D02*
D03*
Y373451D02*
D03*
Y385451D02*
D03*
Y397451D02*
D03*
Y409451D02*
D03*
Y421451D02*
D03*
Y433451D02*
D03*
Y445451D02*
D03*
Y457451D02*
D03*
Y469451D02*
D03*
X375920Y469211D02*
D03*
Y457211D02*
D03*
Y445211D02*
D03*
Y433211D02*
D03*
Y421211D02*
D03*
Y409211D02*
D03*
Y397211D02*
D03*
Y385211D02*
D03*
Y373211D02*
D03*
Y361211D02*
D03*
Y349211D02*
D03*
Y337211D02*
D03*
Y325211D02*
D03*
Y313211D02*
D03*
Y301211D02*
D03*
Y289211D02*
D03*
Y277211D02*
D03*
Y265211D02*
D03*
D21*
X489569Y475909D02*
D03*
X477569D02*
D03*
X465569D02*
D03*
X453569D02*
D03*
X441569D02*
D03*
X429569D02*
D03*
X417569D02*
D03*
X405569D02*
D03*
X405590Y258221D02*
D03*
X417590D02*
D03*
X429590D02*
D03*
X441590D02*
D03*
X453590D02*
D03*
X465590D02*
D03*
X477590D02*
D03*
X489590D02*
D03*
D22*
X306644Y108097D02*
D03*
X291643D02*
D03*
X183878Y180340D02*
D03*
X168878D02*
D03*
X299443Y317344D02*
D03*
X284442D02*
D03*
X712819Y124005D02*
D03*
X697819D02*
D03*
X291763Y123337D02*
D03*
X306763D02*
D03*
X194909Y116876D02*
D03*
X179909D02*
D03*
X168878Y166370D02*
D03*
X183878D02*
D03*
D23*
X206758Y42130D02*
D03*
Y57131D02*
D03*
X225579Y133448D02*
D03*
Y118449D02*
D03*
X534518Y316110D02*
D03*
Y301110D02*
D03*
X100000Y247500D02*
D03*
X499162Y103728D02*
D03*
Y88728D02*
D03*
X514060Y88603D02*
D03*
Y103603D02*
D03*
X387198Y194190D02*
D03*
Y179190D02*
D03*
X436728Y194190D02*
D03*
Y179190D02*
D03*
X191518Y42130D02*
D03*
Y57131D02*
D03*
X549758Y316110D02*
D03*
Y301110D02*
D03*
X100000Y232500D02*
D03*
X549501Y277222D02*
D03*
Y262222D02*
D03*
X534646Y262263D02*
D03*
Y277263D02*
D03*
D24*
X210269Y135536D02*
D03*
Y118536D02*
D03*
X689924Y199322D02*
D03*
X674487Y182384D02*
D03*
Y199384D02*
D03*
X689000Y237728D02*
D03*
X353284Y178837D02*
D03*
Y161837D02*
D03*
X689000Y221728D02*
D03*
X689924Y182322D02*
D03*
X705800Y204877D02*
D03*
Y221877D02*
D03*
D25*
X193559Y150506D02*
D03*
Y131506D02*
D03*
Y141006D02*
D03*
X168559Y150506D02*
D03*
Y141006D02*
D03*
Y131506D02*
D03*
D26*
X266509Y348490D02*
D03*
X256509Y316990D02*
D03*
X266509D02*
D03*
X271508Y348490D02*
D03*
X261508D02*
D03*
X256509D02*
D03*
X261508Y316990D02*
D03*
X271508D02*
D03*
D28*
X118000Y341500D02*
D03*
X132000D02*
D03*
X118000Y310500D02*
D03*
X132000D02*
D03*
D29*
X270358Y155700D02*
D03*
Y123700D02*
D03*
D30*
X291528Y80150D02*
D03*
D31*
X233528Y57150D02*
D03*
Y80150D02*
D03*
Y103150D02*
D03*
D32*
X699982Y139671D02*
D03*
X706482D02*
D03*
X712982D02*
D03*
Y161671D02*
D03*
X706482D02*
D03*
X699982D02*
D03*
D33*
X512694Y142887D02*
D03*
X494694D02*
D03*
X494799Y127028D02*
D03*
X512800D02*
D03*
D34*
X427228Y137360D02*
D03*
X436728D02*
D03*
X446228D02*
D03*
Y162360D02*
D03*
X436728D02*
D03*
X427228D02*
D03*
X377698D02*
D03*
X387198D02*
D03*
X396698D02*
D03*
Y137360D02*
D03*
X387198D02*
D03*
X377698D02*
D03*
D35*
X206459Y87666D02*
D03*
X182759D02*
D03*
D36*
X168758Y207410D02*
D03*
Y257410D02*
D03*
D37*
X143359Y123170D02*
D03*
X117959D02*
D03*
Y184170D02*
D03*
X143359D02*
D03*
D69*
X651358Y199560D02*
D03*
Y188560D02*
D03*
Y210560D02*
D03*
Y221560D02*
D03*
Y232560D02*
D03*
X534518D02*
D03*
Y221560D02*
D03*
Y210560D02*
D03*
Y199560D02*
D03*
Y188560D02*
D03*
Y158560D02*
D03*
Y147560D02*
D03*
Y136560D02*
D03*
Y125560D02*
D03*
Y114560D02*
D03*
Y103560D02*
D03*
Y92560D02*
D03*
X651358Y136560D02*
D03*
Y125560D02*
D03*
Y114560D02*
D03*
Y103560D02*
D03*
Y92560D02*
D03*
Y147560D02*
D03*
Y158560D02*
D03*
D70*
X291948Y156210D02*
D03*
X666000Y470000D02*
D03*
X113000D02*
D03*
X664000Y35000D02*
D03*
X504517Y242152D02*
D03*
X168000Y340000D02*
D03*
Y315000D02*
D03*
D71*
X209862Y150733D02*
X210145Y150450D01*
Y135660D02*
Y150450D01*
Y135660D02*
X210269Y135536D01*
X193559Y150506D02*
X209635D01*
X209862Y150733D01*
X208300Y57281D02*
Y117036D01*
Y57281D02*
X259299D01*
X191668D02*
X208300D01*
X191518Y57131D02*
X191668Y57281D01*
X181597Y88828D02*
Y127991D01*
X168559Y131506D02*
X178037D01*
X181552Y127991D01*
X181597Y88828D02*
X182759Y87666D01*
X259299Y57281D02*
X259449Y57431D01*
X168758Y207410D02*
X209640D01*
X168758Y141006D02*
Y207410D01*
X209640D02*
X210127Y207897D01*
X209800Y118536D02*
X210269D01*
X208300Y117036D02*
X209800Y118536D01*
X225535Y118492D02*
X225579Y118449D01*
X210313Y118492D02*
X225535D01*
X210269Y118536D02*
X210313Y118492D01*
X194909Y116876D02*
Y131506D01*
X168559Y141006D02*
X168758D01*
X117959Y135890D02*
X123075Y141006D01*
X168559D01*
X117959Y123170D02*
Y135890D01*
D72*
X531819Y128259D02*
X534518Y125560D01*
X514031Y128259D02*
X531819D01*
X512800Y127028D02*
X514031Y128259D01*
X519040Y409451D02*
X534852D01*
X535239Y409838D02*
Y424557D01*
X535309Y424627D01*
X534852Y409451D02*
X535239Y409838D01*
X236137Y296046D02*
X258280D01*
X266509Y304274D02*
Y316990D01*
X258280Y296046D02*
X266509Y304274D01*
X253097Y328531D02*
X256509Y325120D01*
X236136Y328531D02*
X253097D01*
X118000Y319850D02*
X122000Y323850D01*
X118000Y310500D02*
Y319850D01*
X120140Y328531D02*
X219137D01*
X118000Y330672D02*
X120140Y328531D01*
X118000Y330672D02*
Y341500D01*
X202390Y296046D02*
X219136D01*
X174586Y323850D02*
X202390Y296046D01*
X122000Y323850D02*
X174586D01*
X651098Y114300D02*
X651358Y114560D01*
X636118Y114300D02*
X651098D01*
X650688Y135890D02*
X651358Y136560D01*
X636118Y135890D02*
X650688D01*
D73*
X398069Y277571D02*
X421609Y301110D01*
X518699D01*
X398069Y257192D02*
Y277571D01*
X270358Y155700D02*
X270358Y155700D01*
X360587Y219710D02*
X398069Y257192D01*
X132000Y277000D02*
Y310500D01*
X353284Y178435D02*
X386444D01*
X291948Y155700D02*
X297788D01*
X132000Y257410D02*
Y277000D01*
Y243930D02*
Y257410D01*
Y243930D02*
X143182Y232748D01*
X197456D01*
X256509Y316990D02*
Y325120D01*
X320523Y178435D02*
X353284D01*
X270358Y155700D02*
X291948D01*
X314808Y219710D02*
X360587D01*
X284442Y302146D02*
Y317344D01*
X271509Y316991D02*
X271862Y317344D01*
X284442D01*
X284358Y302230D02*
Y303951D01*
X221643Y187146D02*
X253088Y155700D01*
X197456Y232748D02*
X221643Y208562D01*
Y187146D02*
Y208562D01*
X507113Y277429D02*
X549294D01*
X549501Y277222D01*
X253088Y155700D02*
X270358D01*
X436728Y179190D02*
X436728Y179189D01*
X270358Y175260D02*
X314808Y219710D01*
X518699Y301110D02*
X519040Y301451D01*
X549758Y301110D02*
X549758Y301110D01*
X270358Y155700D02*
Y175260D01*
X534518Y301110D02*
X534518Y301110D01*
X549758D01*
X387198Y162360D02*
Y179190D01*
X387198Y179190D01*
X436728D01*
X297788Y155700D02*
X320523Y178435D01*
X386444D02*
X387198Y179190D01*
X436728Y162360D02*
Y179189D01*
X270358Y143510D02*
X270358Y143510D01*
Y155700D01*
X436728Y162360D02*
X436728Y162360D01*
X270358Y155700D02*
X270358Y155700D01*
X270358Y155700D02*
X270358Y155700D01*
X519040Y301110D02*
X534518D01*
X387198Y162360D02*
X387198Y162360D01*
X270358Y155700D02*
X270358Y155700D01*
X499373Y103517D02*
X534359D01*
X487519Y103484D02*
X498918D01*
X534359Y103517D02*
Y114517D01*
D74*
X636118Y103560D02*
X651358D01*
X689686Y199560D02*
X689924Y199322D01*
X636672Y199560D02*
X651358D01*
X689686D01*
X674487Y182384D02*
X674923D01*
X678153Y151375D02*
X689857Y139671D01*
X674923Y182384D02*
X678153Y179154D01*
Y151375D02*
Y179154D01*
X698431Y182322D02*
X712982Y167771D01*
Y153670D02*
Y167771D01*
X718273Y152248D02*
Y168996D01*
X705800Y181469D02*
Y204877D01*
Y181469D02*
X718273Y168996D01*
X689924Y182322D02*
X698431D01*
X689857Y139671D02*
X699982D01*
X712982Y124168D02*
Y139671D01*
X712819Y124005D02*
X712982Y124168D01*
Y146957D02*
X718273Y152248D01*
X712982Y139671D02*
Y146957D01*
X706482Y147170D02*
X712982Y153670D01*
X706482Y139671D02*
Y147170D01*
X399647Y290819D02*
X399650Y290816D01*
X390580Y290819D02*
X399647D01*
X390569Y290808D02*
X390580Y290819D01*
X651208Y92710D02*
X651358Y92560D01*
X636118Y92710D02*
X651208D01*
X651188Y125730D02*
X651358Y125560D01*
X636118Y125730D02*
X651188D01*
X651118Y147320D02*
X651358Y147560D01*
X636118Y147320D02*
X651118D01*
X651346Y158573D02*
X651358Y158560D01*
X636672Y158573D02*
X651346D01*
X491338Y341630D02*
X491349Y341619D01*
X504559D02*
X504570Y341608D01*
X491349Y341619D02*
X504559D01*
D75*
X705800Y221560D02*
X755440D01*
X689000D02*
X705800D01*
X755440D02*
X757000Y220000D01*
X651358Y221560D02*
X689000D01*
X291646Y108097D02*
Y123220D01*
Y108097D02*
Y123220D01*
Y80268D02*
Y108097D01*
Y80268D02*
Y108097D01*
X82398Y160020D02*
X130658D01*
X143359Y172720D02*
Y184170D01*
X130658Y160020D02*
X143359Y172720D01*
X58718Y108770D02*
X82899D01*
X44298Y123190D02*
Y160020D01*
Y123190D02*
X58718Y108770D01*
X68448Y184170D02*
X117959D01*
X44298Y160020D02*
X68448Y184170D01*
X270358Y123700D02*
X270539Y123519D01*
X291582D01*
X291763Y123337D01*
X291646Y123220D02*
X291763Y123337D01*
X291528Y80150D02*
X291646Y80268D01*
X233528Y80150D02*
X291528D01*
D76*
X138000Y400000D02*
D03*
Y88000D02*
D03*
X640000Y400000D02*
D03*
D77*
X342000Y40000D02*
D03*
X410000Y30000D02*
D03*
X480000Y40000D02*
D03*
D78*
X425000Y70000D02*
D03*
X400000D02*
D03*
X380000Y96000D02*
D03*
Y70000D02*
D03*
X445000Y96000D02*
D03*
Y70000D02*
D03*
D79*
X781000Y194000D02*
D03*
X730000D02*
D03*
Y248000D02*
D03*
X781000D02*
D03*
D80*
X755000Y220000D02*
D03*
D81*
X83000Y110000D02*
D03*
D82*
Y160000D02*
D03*
D83*
X50000Y220000D02*
D03*
X49000Y265000D02*
D03*
D84*
X74000Y210000D02*
D03*
Y280000D02*
D03*
D85*
X451581Y113712D02*
D03*
X460924Y127485D02*
D03*
X495148Y154940D02*
D03*
X535290Y395518D02*
D03*
X437060Y22814D02*
D03*
X106000Y266999D02*
D03*
X114605Y247763D02*
D03*
X519133Y247475D02*
D03*
X636118Y103560D02*
D03*
X259449Y57431D02*
D03*
X636672Y199560D02*
D03*
X401780Y87734D02*
D03*
X306000Y377000D02*
D03*
X284358Y303951D02*
D03*
X262060Y272814D02*
D03*
X137060Y222814D02*
D03*
X19125Y318668D02*
D03*
X228673Y345696D02*
D03*
X387060Y222814D02*
D03*
X187060Y22814D02*
D03*
X408728Y391294D02*
D03*
X662060Y372814D02*
D03*
X637060Y322814D02*
D03*
X687060D02*
D03*
X337060Y122814D02*
D03*
X587060Y22814D02*
D03*
X62060Y372814D02*
D03*
X336055Y95145D02*
D03*
X387060Y22814D02*
D03*
X561758Y99268D02*
D03*
X237060Y222814D02*
D03*
X487060D02*
D03*
X181619Y344178D02*
D03*
X537060Y22814D02*
D03*
X712060Y272814D02*
D03*
X336830Y291106D02*
D03*
X452916Y406031D02*
D03*
X662060Y72814D02*
D03*
X287060Y422814D02*
D03*
X562060Y172870D02*
D03*
X187060Y222814D02*
D03*
X87060D02*
D03*
X587060Y122814D02*
D03*
X87060Y422814D02*
D03*
X363123Y195530D02*
D03*
X437060Y222814D02*
D03*
X440120Y43113D02*
D03*
X237060Y22814D02*
D03*
X478834Y400050D02*
D03*
X293032Y360875D02*
D03*
X712060Y372814D02*
D03*
X487060Y422814D02*
D03*
X20348Y222390D02*
D03*
X187060Y422814D02*
D03*
X37060Y322814D02*
D03*
X481650Y135284D02*
D03*
X762060Y272814D02*
D03*
X305046Y142710D02*
D03*
X222298Y314124D02*
D03*
X637060Y22814D02*
D03*
X512060Y72814D02*
D03*
X287060Y22814D02*
D03*
X237060Y422814D02*
D03*
X162060Y72814D02*
D03*
X737060Y322814D02*
D03*
X20622Y167853D02*
D03*
X587060Y422814D02*
D03*
X425929Y88575D02*
D03*
X687060Y422814D02*
D03*
X416340Y337017D02*
D03*
X662060Y272814D02*
D03*
X87060Y322814D02*
D03*
X474282Y179763D02*
D03*
X312060Y72814D02*
D03*
X319237Y195530D02*
D03*
X212060Y272814D02*
D03*
X337060Y422814D02*
D03*
X448443Y290683D02*
D03*
X459033Y314181D02*
D03*
X345253Y141658D02*
D03*
X762060Y372814D02*
D03*
X612060D02*
D03*
X287060Y222814D02*
D03*
X262060Y372814D02*
D03*
X320059Y61063D02*
D03*
X85719Y132675D02*
D03*
X612060Y272814D02*
D03*
X20074Y277201D02*
D03*
X437060Y322814D02*
D03*
X112060Y372814D02*
D03*
X612566Y223857D02*
D03*
X112060Y72814D02*
D03*
X162060Y372814D02*
D03*
X415368Y414670D02*
D03*
X176761Y303499D02*
D03*
X20348Y111946D02*
D03*
X562060Y72814D02*
D03*
X337060Y322814D02*
D03*
X137060Y22814D02*
D03*
X210127Y207897D02*
D03*
X507113Y277429D02*
D03*
X317813Y366069D02*
D03*
X399650Y290816D02*
D03*
X492608Y290830D02*
D03*
X636118Y92710D02*
D03*
Y114300D02*
D03*
Y125730D02*
D03*
Y135890D02*
D03*
Y147320D02*
D03*
X636672Y158573D02*
D03*
X454508Y162560D02*
D03*
X493878Y115570D02*
D03*
X412598Y162560D02*
D03*
X366878D02*
D03*
X582778Y259080D02*
D03*
X572618D02*
D03*
X345653Y352076D02*
D03*
X402438Y316230D02*
D03*
X531978Y361451D02*
D03*
Y349451D02*
D03*
Y337451D02*
D03*
X491338Y341630D02*
D03*
X270358Y143510D02*
D03*
X487519Y103484D02*
D03*
X491338Y316230D02*
D03*
M02*
