G04*
G04 #@! TF.GenerationSoftware,Altium Limited,Altium Designer,25.2.1 (25)*
G04*
G04 Layer_Color=65535*
%FSLAX44Y44*%
%MOMM*%
G71*
G04*
G04 #@! TF.SameCoordinates,87619A9C-F5BC-4542-8D18-A5A081A772CD*
G04*
G04*
G04 #@! TF.FilePolarity,Positive*
G04*
G01*
G75*
%ADD10C,0.2000*%
%ADD11C,0.2500*%
%ADD12C,0.1270*%
%ADD13C,0.3800*%
%ADD14C,0.1000*%
%ADD15C,0.1500*%
%ADD16C,0.1600*%
D10*
X423150Y119263D02*
G03*
X423150Y119263I-1000J0D01*
G01*
X113500Y108875D02*
G03*
X113500Y108875I-1000J0D01*
G01*
X532365Y251196D02*
G03*
X532337Y251476I705J212D01*
G01*
X693982Y139671D02*
G03*
X693982Y139671I-1000J0D01*
G01*
X106908Y123170D02*
G03*
X106908Y123170I-1000J0D01*
G01*
X49750Y295250D02*
G03*
X49750Y295250I-1000J0D01*
G01*
X252028Y46650D02*
X274278D01*
X252028Y113650D02*
X274278D01*
Y46650D02*
Y113650D01*
X252028Y46650D02*
Y113650D01*
X685880Y229728D02*
X692120D01*
D11*
X239278Y114400D02*
G03*
X239278Y114400I-1250J0D01*
G01*
D12*
X279758Y353990D02*
G03*
X279758Y353990I-500J0D01*
G01*
X299948Y156210D02*
G03*
X299948Y156210I-8000J0D01*
G01*
X421335Y137214D02*
G03*
X421335Y137214I-500J0D01*
G01*
X371805D02*
G03*
X371805Y137214I-500J0D01*
G01*
X194206Y125113D02*
G03*
X194206Y125113I-500J0D01*
G01*
X512517Y242152D02*
G03*
X512517Y242152I-8000J0D01*
G01*
X340000Y-16500D02*
Y15000D01*
Y-16500D02*
X480000D01*
X340000Y114000D02*
X480000D01*
X340000Y70000D02*
Y114000D01*
X480000Y-16500D02*
Y15000D01*
Y65000D02*
Y114000D01*
X13000Y192575D02*
X102750D01*
X13000Y142500D02*
Y192575D01*
X102750Y74975D02*
Y192575D01*
X110927Y321094D02*
Y331094D01*
X139026Y320933D02*
Y330933D01*
X278858Y133700D02*
Y145700D01*
X261858Y133700D02*
Y145700D01*
X274008Y324740D02*
Y340740D01*
X254008Y324740D02*
X274008D01*
X254008D02*
Y340740D01*
X274008D01*
X291943Y314343D02*
Y320343D01*
X705319Y121005D02*
Y127005D01*
X716482Y147671D02*
Y153671D01*
X696482D02*
X716482D01*
X696482Y147671D02*
Y153671D01*
Y147671D02*
X716482D01*
X8000Y355103D02*
X176761D01*
X8000Y299242D02*
X176761D01*
Y355103D01*
X503695Y137637D02*
Y148137D01*
X503800Y121778D02*
Y132278D01*
X496162Y96228D02*
X502162D01*
X511060Y96102D02*
X517060D01*
X422228Y146860D02*
Y152860D01*
X451228D01*
Y146860D02*
Y152860D01*
X422228Y146860D02*
X451228D01*
X372698D02*
X401698D01*
Y152860D01*
X372698D02*
X401698D01*
X372698Y146860D02*
Y152860D01*
X178059Y126506D02*
X184059D01*
X178059D02*
Y155506D01*
X184059D01*
Y126506D02*
Y155506D01*
X173109Y109166D02*
X216109D01*
Y66166D02*
Y109166D01*
X173109Y66166D02*
X216109D01*
X173109D02*
Y109166D01*
X384198Y186690D02*
X390198D01*
X433728D02*
X439728D01*
X222579Y125948D02*
X228579D01*
X201758Y217150D02*
Y265410D01*
X184018Y199410D02*
X201758Y217150D01*
X135758D02*
Y265410D01*
Y217150D02*
X153498Y199410D01*
X183998Y265410D02*
X201758D01*
X135758D02*
X153518D01*
X188517Y49631D02*
X194517D01*
X203757D02*
X209757D01*
X299263Y120338D02*
Y126338D01*
X299143Y105098D02*
Y111098D01*
X105908Y136670D02*
Y169420D01*
X155408Y136670D02*
Y169420D01*
X105908Y136670D02*
X155408D01*
X105908Y169420D02*
X155408D01*
X111908Y140420D02*
X148738D01*
X187409Y113876D02*
Y119876D01*
X176378Y163370D02*
Y169370D01*
Y177340D02*
Y183340D01*
X546758Y308610D02*
X552758D01*
X531518D02*
X537518D01*
X97000Y240000D02*
X103000D01*
X546501Y269722D02*
X552501D01*
X531645Y269763D02*
X537645D01*
X88418Y221000D02*
Y266000D01*
X24750Y201500D02*
Y285250D01*
Y201500D02*
X49000D01*
X24750Y285250D02*
Y286036D01*
X48750D01*
X135280Y291235D02*
X128750D01*
X132015Y294500D02*
Y287970D01*
X145400Y159330D02*
X144131Y160600D01*
Y163139D01*
X142861Y164408D01*
X117206Y159330D02*
X115937Y160600D01*
Y163139D01*
X114667Y164408D01*
X144621Y145236D02*
Y150314D01*
X116681Y145236D02*
Y150314D01*
X114142Y147775D02*
X119221D01*
X118652Y369809D02*
Y362191D01*
X122461D01*
X123730Y363461D01*
Y368539D01*
X122461Y369809D01*
X118652D01*
X131348Y362191D02*
X126270D01*
X131348Y367270D01*
Y368539D01*
X130078Y369809D01*
X127539D01*
X126270Y368539D01*
X343762Y191524D02*
Y199141D01*
X347571D01*
X348841Y197872D01*
Y195333D01*
X347571Y194063D01*
X343762D01*
X346301D02*
X348841Y191524D01*
X351380D02*
X353919D01*
X352649D01*
Y199141D01*
X351380Y197872D01*
X357728D02*
X358997Y199141D01*
X361537D01*
X362806Y197872D01*
Y196602D01*
X361537Y195333D01*
X360267D01*
X361537D01*
X362806Y194063D01*
Y192793D01*
X361537Y191524D01*
X358997D01*
X357728Y192793D01*
X257922Y33809D02*
Y27461D01*
X259191Y26191D01*
X261730D01*
X263000Y27461D01*
Y33809D01*
X265539Y26191D02*
X268078D01*
X266809D01*
Y33809D01*
X265539Y32539D01*
X684356Y249353D02*
X691973D01*
Y253162D01*
X690704Y254431D01*
X685625D01*
X684356Y253162D01*
Y249353D01*
X685625Y256971D02*
X684356Y258240D01*
Y260779D01*
X685625Y262049D01*
X686895D01*
X688164Y260779D01*
Y259510D01*
Y260779D01*
X689434Y262049D01*
X690704D01*
X691973Y260779D01*
Y258240D01*
X690704Y256971D01*
X307192Y158749D02*
X308461Y160019D01*
X311000D01*
X312270Y158749D01*
Y157480D01*
X311000Y156210D01*
X309731D01*
X311000D01*
X312270Y154940D01*
Y153671D01*
X311000Y152401D01*
X308461D01*
X307192Y153671D01*
X314809Y160019D02*
Y154940D01*
X317348Y152401D01*
X319887Y154940D01*
Y160019D01*
X322427Y158749D02*
X323696Y160019D01*
X326235D01*
X327505Y158749D01*
Y157480D01*
X326235Y156210D01*
X324966D01*
X326235D01*
X327505Y154940D01*
Y153671D01*
X326235Y152401D01*
X323696D01*
X322427Y153671D01*
X728000Y148461D02*
Y153539D01*
X726730Y154809D01*
X724191D01*
X722922Y153539D01*
Y148461D01*
X724191Y147191D01*
X726730D01*
X725461Y149730D02*
X728000Y147191D01*
X726730D02*
X728000Y148461D01*
X730539Y147191D02*
X733078D01*
X731809D01*
Y154809D01*
X730539Y153539D01*
X667478Y142191D02*
Y149809D01*
X671287D01*
X672556Y148539D01*
Y146000D01*
X671287Y144730D01*
X667478D01*
X670017D02*
X672556Y142191D01*
X675096D02*
X677635D01*
X676365D01*
Y149809D01*
X675096Y148539D01*
X681444D02*
X682713Y149809D01*
X685252D01*
X686522Y148539D01*
Y143461D01*
X685252Y142191D01*
X682713D01*
X681444Y143461D01*
Y148539D01*
X676809Y211652D02*
X669191D01*
Y215461D01*
X670461Y216730D01*
X673000D01*
X674269Y215461D01*
Y211652D01*
Y214191D02*
X676809Y216730D01*
X675539Y219270D02*
X676809Y220539D01*
Y223078D01*
X675539Y224348D01*
X670461D01*
X669191Y223078D01*
Y220539D01*
X670461Y219270D01*
X671730D01*
X673000Y220539D01*
Y224348D01*
X710809Y177652D02*
X703191D01*
Y181461D01*
X704461Y182730D01*
X707000D01*
X708270Y181461D01*
Y177652D01*
Y180191D02*
X710809Y182730D01*
X704461Y185270D02*
X703191Y186539D01*
Y189078D01*
X704461Y190348D01*
X705730D01*
X707000Y189078D01*
X708270Y190348D01*
X709539D01*
X710809Y189078D01*
Y186539D01*
X709539Y185270D01*
X708270D01*
X707000Y186539D01*
X705730Y185270D01*
X704461D01*
X707000Y186539D02*
Y189078D01*
X702191Y233652D02*
X709809D01*
Y238730D01*
Y246348D02*
Y241270D01*
X704730Y246348D01*
X703461D01*
X702191Y245078D01*
Y242539D01*
X703461Y241270D01*
X672556Y126539D02*
X671287Y127809D01*
X668748D01*
X667478Y126539D01*
Y121461D01*
X668748Y120191D01*
X671287D01*
X672556Y121461D01*
X675096Y120191D02*
X677635D01*
X676365D01*
Y127809D01*
X675096Y126539D01*
X686522Y127809D02*
X683983Y126539D01*
X681444Y124000D01*
Y121461D01*
X682713Y120191D01*
X685252D01*
X686522Y121461D01*
Y122730D01*
X685252Y124000D01*
X681444D01*
X585320Y71119D02*
Y64771D01*
X586590Y63501D01*
X589129D01*
X590399Y64771D01*
Y71119D01*
X598016D02*
X592938D01*
Y67310D01*
X595477Y68580D01*
X596747D01*
X598016Y67310D01*
Y64771D01*
X596747Y63501D01*
X594207D01*
X592938Y64771D01*
X187809Y20320D02*
X186539Y19051D01*
Y16512D01*
X187809Y15242D01*
X192887D01*
X194157Y16512D01*
Y19051D01*
X192887Y20320D01*
X186539Y27938D02*
Y22860D01*
X190348D01*
X189079Y25399D01*
Y26668D01*
X190348Y27938D01*
X192887D01*
X194157Y26668D01*
Y24129D01*
X192887Y22860D01*
X204319Y20320D02*
X203050Y19051D01*
Y16512D01*
X204319Y15242D01*
X209397D01*
X210667Y16512D01*
Y19051D01*
X209397Y20320D01*
X210667Y26668D02*
X203050D01*
X206858Y22860D01*
Y27938D01*
X195652Y168809D02*
Y162461D01*
X196922Y161191D01*
X199461D01*
X200730Y162461D01*
Y168809D01*
X208348Y161191D02*
X203270D01*
X208348Y166270D01*
Y167539D01*
X207078Y168809D01*
X204539D01*
X203270Y167539D01*
X217652Y161191D02*
Y168809D01*
X221461D01*
X222730Y167539D01*
Y165000D01*
X221461Y163730D01*
X217652D01*
X220191D02*
X222730Y161191D01*
X230348D02*
X225270D01*
X230348Y166270D01*
Y167539D01*
X229078Y168809D01*
X226539D01*
X225270Y167539D01*
X241809Y123922D02*
X234191D01*
Y127730D01*
X235461Y129000D01*
X238000D01*
X239270Y127730D01*
Y123922D01*
Y126461D02*
X241809Y129000D01*
Y131539D02*
Y134078D01*
Y132809D01*
X234191D01*
X235461Y131539D01*
X157374Y62469D02*
Y54851D01*
X162452D01*
X164991D02*
X167530D01*
X166261D01*
Y62469D01*
X164991Y61199D01*
X200730Y179539D02*
X199461Y180809D01*
X196922D01*
X195652Y179539D01*
Y174461D01*
X196922Y173191D01*
X199461D01*
X200730Y174461D01*
X203270D02*
X204539Y173191D01*
X207078D01*
X208348Y174461D01*
Y179539D01*
X207078Y180809D01*
X204539D01*
X203270Y179539D01*
Y178270D01*
X204539Y177000D01*
X208348D01*
X200509Y191769D02*
X199239Y193039D01*
X196700D01*
X195430Y191769D01*
Y186691D01*
X196700Y185421D01*
X199239D01*
X200509Y186691D01*
X203048Y191769D02*
X204317Y193039D01*
X206857D01*
X208126Y191769D01*
Y190500D01*
X206857Y189230D01*
X208126Y187960D01*
Y186691D01*
X206857Y185421D01*
X204317D01*
X203048Y186691D01*
Y187960D01*
X204317Y189230D01*
X203048Y190500D01*
Y191769D01*
X204317Y189230D02*
X206857D01*
X247461Y128730D02*
X246191Y127461D01*
Y124922D01*
X247461Y123652D01*
X252539D01*
X253809Y124922D01*
Y127461D01*
X252539Y128730D01*
X246191Y136348D02*
X247461Y133809D01*
X250000Y131270D01*
X252539D01*
X253809Y132539D01*
Y135078D01*
X252539Y136348D01*
X251270D01*
X250000Y135078D01*
Y131270D01*
X165000Y119539D02*
X163730Y120809D01*
X161191D01*
X159922Y119539D01*
Y114461D01*
X161191Y113191D01*
X163730D01*
X165000Y114461D01*
X167539Y113191D02*
X170078D01*
X168809D01*
Y120809D01*
X167539Y119539D01*
X268191Y181809D02*
X263113D01*
Y178000D01*
X265652D01*
X263113D01*
Y174191D01*
X270730Y181809D02*
Y174191D01*
X274539D01*
X275809Y175461D01*
Y176730D01*
X274539Y178000D01*
X270730D01*
X274539D01*
X275809Y179270D01*
Y180539D01*
X274539Y181809D01*
X270730D01*
X278348Y174191D02*
X280887D01*
X279618D01*
Y181809D01*
X278348Y180539D01*
X322730Y110637D02*
X321461Y111906D01*
X318922D01*
X317652Y110637D01*
Y105558D01*
X318922Y104289D01*
X321461D01*
X322730Y105558D01*
X325270Y110637D02*
X326539Y111906D01*
X329078D01*
X330348Y110637D01*
Y109367D01*
X329078Y108097D01*
X327809D01*
X329078D01*
X330348Y106828D01*
Y105558D01*
X329078Y104289D01*
X326539D01*
X325270Y105558D01*
X322730Y125759D02*
X321461Y127029D01*
X318922D01*
X317652Y125759D01*
Y120681D01*
X318922Y119411D01*
X321461D01*
X322730Y120681D01*
X330348Y119411D02*
X325270D01*
X330348Y124490D01*
Y125759D01*
X329078Y127029D01*
X326539D01*
X325270Y125759D01*
X357191Y137652D02*
X363539D01*
X364809Y138922D01*
Y141461D01*
X363539Y142730D01*
X357191D01*
X358461Y145270D02*
X357191Y146539D01*
Y149078D01*
X358461Y150348D01*
X359730D01*
X361000Y149078D01*
X362270Y150348D01*
X363539D01*
X364809Y149078D01*
Y146539D01*
X363539Y145270D01*
X362270D01*
X361000Y146539D01*
X359730Y145270D01*
X358461D01*
X361000Y146539D02*
Y149078D01*
X408421Y137304D02*
X414769D01*
X416038Y138574D01*
Y141113D01*
X414769Y142383D01*
X408421D01*
Y150000D02*
X409690Y147461D01*
X412230Y144922D01*
X414769D01*
X416038Y146192D01*
Y148731D01*
X414769Y150000D01*
X413499D01*
X412230Y148731D01*
Y144922D01*
X288602Y298585D02*
X287332Y299855D01*
X284793D01*
X283523Y298585D01*
Y293507D01*
X284793Y292237D01*
X287332D01*
X288602Y293507D01*
X291141Y292237D02*
X293680D01*
X292410D01*
Y299855D01*
X291141Y298585D01*
X301297Y292237D02*
Y299855D01*
X297489Y296046D01*
X302567D01*
X534652Y468809D02*
Y462461D01*
X535922Y461191D01*
X538461D01*
X539730Y462461D01*
Y468809D01*
X542270D02*
X547348D01*
Y467539D01*
X542270Y462461D01*
Y461191D01*
X562459Y265432D02*
X561189Y264162D01*
Y261623D01*
X562459Y260353D01*
X567537D01*
X568807Y261623D01*
Y264162D01*
X567537Y265432D01*
X568807Y273049D02*
Y267971D01*
X563729Y273049D01*
X562459D01*
X561189Y271780D01*
Y269240D01*
X562459Y267971D01*
X561189Y280667D02*
Y275588D01*
X564998D01*
X563729Y278128D01*
Y279397D01*
X564998Y280667D01*
X567537D01*
X568807Y279397D01*
Y276858D01*
X567537Y275588D01*
X574461Y264922D02*
X573191Y263652D01*
Y261113D01*
X574461Y259843D01*
X579539D01*
X580809Y261113D01*
Y263652D01*
X579539Y264922D01*
X580809Y272539D02*
Y267461D01*
X575730Y272539D01*
X574461D01*
X573191Y271270D01*
Y268730D01*
X574461Y267461D01*
X580809Y278887D02*
X573191D01*
X577000Y275078D01*
Y280157D01*
X97000Y61631D02*
X94461D01*
X95730D01*
Y55283D01*
X94461Y54014D01*
X93191D01*
X91922Y55283D01*
X99539Y54014D02*
X102078D01*
X100809D01*
Y61631D01*
X99539Y60361D01*
X471020Y130809D02*
X465942D01*
Y127000D01*
X468481D01*
X465942D01*
Y123191D01*
X473559Y130809D02*
Y123191D01*
X477368D01*
X478637Y124461D01*
Y125730D01*
X477368Y127000D01*
X473559D01*
X477368D01*
X478637Y128270D01*
Y129539D01*
X477368Y130809D01*
X473559D01*
X481177Y129539D02*
X482446Y130809D01*
X484985D01*
X486255Y129539D01*
Y128270D01*
X484985Y127000D01*
X483716D01*
X484985D01*
X486255Y125730D01*
Y124461D01*
X484985Y123191D01*
X482446D01*
X481177Y124461D01*
X471020Y148589D02*
X465942D01*
Y144780D01*
X468481D01*
X465942D01*
Y140971D01*
X473559Y148589D02*
Y140971D01*
X477368D01*
X478637Y142241D01*
Y143510D01*
X477368Y144780D01*
X473559D01*
X477368D01*
X478637Y146050D01*
Y147319D01*
X477368Y148589D01*
X473559D01*
X486255Y140971D02*
X481177D01*
X486255Y146050D01*
Y147319D01*
X484985Y148589D01*
X482446D01*
X481177Y147319D01*
X453525Y245987D02*
Y238369D01*
X457334D01*
X458604Y239639D01*
Y240908D01*
X457334Y242178D01*
X453525D01*
X457334D01*
X458604Y243447D01*
Y244717D01*
X457334Y245987D01*
X453525D01*
X464952D02*
X462412D01*
X461143Y244717D01*
Y239639D01*
X462412Y238369D01*
X464952D01*
X466221Y239639D01*
Y244717D01*
X464952Y245987D01*
X472569D02*
X470030D01*
X468760Y244717D01*
Y239639D01*
X470030Y238369D01*
X472569D01*
X473839Y239639D01*
Y244717D01*
X472569Y245987D01*
X476378D02*
X481456D01*
X478917D01*
Y238369D01*
X483996Y244717D02*
X485265Y245987D01*
X487804D01*
X489074Y244717D01*
Y239639D01*
X487804Y238369D01*
X485265D01*
X483996Y239639D01*
Y244717D01*
X101714Y209184D02*
X100444Y210454D01*
X97905D01*
X96636Y209184D01*
Y207915D01*
X97905Y206645D01*
X100444D01*
X101714Y205375D01*
Y204106D01*
X100444Y202836D01*
X97905D01*
X96636Y204106D01*
X104253Y202836D02*
X106792D01*
X105523D01*
Y210454D01*
X104253Y209184D01*
X564366Y421641D02*
Y429259D01*
X568175D01*
X569445Y427989D01*
Y425450D01*
X568175Y424180D01*
X564366D01*
X566906D02*
X569445Y421641D01*
X571984D02*
X574523D01*
X573254D01*
Y429259D01*
X571984Y427989D01*
X583410Y421641D02*
X578332D01*
X583410Y426720D01*
Y427989D01*
X582141Y429259D01*
X579601D01*
X578332Y427989D01*
X564748Y406191D02*
Y413809D01*
X568556D01*
X569826Y412539D01*
Y410000D01*
X568556Y408730D01*
X564748D01*
X567287D02*
X569826Y406191D01*
X572365D02*
X574904D01*
X573635D01*
Y413809D01*
X572365Y412539D01*
X578713Y406191D02*
X581252D01*
X579983D01*
Y413809D01*
X578713Y412539D01*
X222325Y341887D02*
Y349505D01*
X226134D01*
X227404Y348235D01*
Y345696D01*
X226134Y344426D01*
X222325D01*
X224865D02*
X227404Y341887D01*
X233752D02*
Y349505D01*
X229943Y345696D01*
X235021D01*
X220830Y374651D02*
Y382269D01*
X224639D01*
X225909Y380999D01*
Y378460D01*
X224639Y377190D01*
X220830D01*
X223370D02*
X225909Y374651D01*
X233526Y382269D02*
X228448D01*
Y378460D01*
X230987Y379730D01*
X232257D01*
X233526Y378460D01*
Y375921D01*
X232257Y374651D01*
X229717D01*
X228448Y375921D01*
X222325Y306931D02*
Y314549D01*
X226134D01*
X227404Y313279D01*
Y310740D01*
X226134Y309470D01*
X222325D01*
X224865D02*
X227404Y306931D01*
X229943Y313279D02*
X231213Y314549D01*
X233752D01*
X235021Y313279D01*
Y312010D01*
X233752Y310740D01*
X232482D01*
X233752D01*
X235021Y309470D01*
Y308201D01*
X233752Y306931D01*
X231213D01*
X229943Y308201D01*
X258930Y299855D02*
Y293507D01*
X260200Y292237D01*
X262739D01*
X264009Y293507D01*
Y299855D01*
X270357Y292237D02*
Y299855D01*
X266548Y296046D01*
X271626D01*
X495750Y18628D02*
X493211D01*
X494481D01*
Y12280D01*
X493211Y11010D01*
X491942D01*
X490672Y12280D01*
X498290Y17358D02*
X499559Y18628D01*
X502098D01*
X503368Y17358D01*
Y16089D01*
X502098Y14819D01*
X500829D01*
X502098D01*
X503368Y13549D01*
Y12280D01*
X502098Y11010D01*
X499559D01*
X498290Y12280D01*
X753730Y165959D02*
X751191D01*
X752461D01*
Y159611D01*
X751191Y158341D01*
X749922D01*
X748652Y159611D01*
X761348Y158341D02*
X756270D01*
X761348Y163420D01*
Y164689D01*
X760078Y165959D01*
X757539D01*
X756270Y164689D01*
X124922Y204809D02*
Y197191D01*
X128730D01*
X130000Y198461D01*
Y203539D01*
X128730Y204809D01*
X124922D01*
X132539Y197191D02*
X135078D01*
X133809D01*
Y204809D01*
X132539Y203539D01*
X368149Y182881D02*
X366880Y181612D01*
Y179072D01*
X368149Y177803D01*
X373227D01*
X374497Y179072D01*
Y181612D01*
X373227Y182881D01*
X374497Y190499D02*
Y185420D01*
X369419Y190499D01*
X368149D01*
X366880Y189229D01*
Y186690D01*
X368149Y185420D01*
X374497Y193038D02*
Y195577D01*
Y194308D01*
X366880D01*
X368149Y193038D01*
X496419Y63502D02*
X495149Y62232D01*
Y59693D01*
X496419Y58423D01*
X501497D01*
X502767Y59693D01*
Y62232D01*
X501497Y63502D01*
X502767Y71119D02*
Y66041D01*
X497689Y71119D01*
X496419D01*
X495149Y69850D01*
Y67310D01*
X496419Y66041D01*
Y73658D02*
X495149Y74928D01*
Y77467D01*
X496419Y78737D01*
X497689D01*
X498958Y77467D01*
Y76198D01*
Y77467D01*
X500228Y78737D01*
X501497D01*
X502767Y77467D01*
Y74928D01*
X501497Y73658D01*
X511603Y62833D02*
X510333Y61563D01*
Y59024D01*
X511603Y57754D01*
X516681D01*
X517951Y59024D01*
Y61563D01*
X516681Y62833D01*
X517951Y70450D02*
Y65372D01*
X512872Y70450D01*
X511603D01*
X510333Y69180D01*
Y66641D01*
X511603Y65372D01*
X517951Y78068D02*
Y72989D01*
X512872Y78068D01*
X511603D01*
X510333Y76798D01*
Y74259D01*
X511603Y72989D01*
X418949Y182882D02*
X417679Y181612D01*
Y179073D01*
X418949Y177803D01*
X424027D01*
X425297Y179073D01*
Y181612D01*
X424027Y182882D01*
X425297Y190499D02*
Y185421D01*
X420219Y190499D01*
X418949D01*
X417679Y189230D01*
Y186690D01*
X418949Y185421D01*
Y193038D02*
X417679Y194308D01*
Y196847D01*
X418949Y198117D01*
X424027D01*
X425297Y196847D01*
Y194308D01*
X424027Y193038D01*
X418949D01*
X112636Y235845D02*
X111366Y234575D01*
Y232036D01*
X112636Y230766D01*
X117714D01*
X118984Y232036D01*
Y234575D01*
X117714Y235845D01*
X118984Y238384D02*
Y240923D01*
Y239653D01*
X111366D01*
X112636Y238384D01*
X111366Y244732D02*
Y249810D01*
X112636D01*
X117714Y244732D01*
X118984D01*
X561189Y302896D02*
X559920Y301627D01*
Y299088D01*
X561189Y297818D01*
X566267D01*
X567537Y299088D01*
Y301627D01*
X566267Y302896D01*
X567537Y305436D02*
Y307975D01*
Y306705D01*
X559920D01*
X561189Y305436D01*
X566267Y311784D02*
X567537Y313053D01*
Y315592D01*
X566267Y316862D01*
X561189D01*
X559920Y315592D01*
Y313053D01*
X561189Y311784D01*
X562459D01*
X563728Y313053D01*
Y316862D01*
X573889Y302896D02*
X572620Y301627D01*
Y299088D01*
X573889Y297818D01*
X578967D01*
X580237Y299088D01*
Y301627D01*
X578967Y302896D01*
X580237Y305436D02*
Y307975D01*
Y306705D01*
X572620D01*
X573889Y305436D01*
Y311784D02*
X572620Y313053D01*
Y315592D01*
X573889Y316862D01*
X575159D01*
X576428Y315592D01*
X577698Y316862D01*
X578967D01*
X580237Y315592D01*
Y313053D01*
X578967Y311784D01*
X577698D01*
X576428Y313053D01*
X575159Y311784D01*
X573889D01*
X576428Y313053D02*
Y315592D01*
X215857Y242460D02*
X214588Y243730D01*
X212049D01*
X210779Y242460D01*
Y237382D01*
X212049Y236112D01*
X214588D01*
X215857Y237382D01*
X218397Y243730D02*
X223475D01*
Y242460D01*
X218397Y237382D01*
Y236112D01*
D13*
X669763Y92560D02*
G03*
X669763Y92560I-575J0D01*
G01*
D14*
X790000Y209750D02*
Y229750D01*
X745000Y185000D02*
X765000D01*
X720000Y209750D02*
Y229750D01*
X746279Y254999D02*
X763957Y255000D01*
D15*
X521570Y255908D02*
Y255909D01*
X521569Y478908D02*
Y478908D01*
X498070Y478908D02*
X521569D01*
X373569D02*
X397070D01*
X373569D02*
Y478908D01*
Y255908D02*
Y255909D01*
Y255908D02*
X397070D01*
X498070D02*
X521570D01*
D16*
X531851Y82560D02*
X653898D01*
X531851Y242516D02*
X653835D01*
M02*
